<svg width="48" height="48" viewBox="0 0 48 48" fill="none" xmlns="http://www.w3.org/2000/svg">
<g clip-path="url(#clip0_820_7092)">
<path fill-rule="evenodd" clip-rule="evenodd" d="M24 12C17.3753 12 12 17.3753 12 24C12 30.6247 17.3753 36 24 36C30.6117 36 36 30.6247 36 24C36 17.3753 30.6117 12 24 12ZM31.9262 17.5314C33.3579 19.2755 34.2169 21.5011 34.243 23.9089C33.9046 23.8438 30.5206 23.154 27.1106 23.5835C27.0325 23.4143 26.9675 23.2321 26.8894 23.0499C26.6811 22.5553 26.4468 22.0477 26.2126 21.5662C29.987 20.0304 31.705 17.8178 31.9262 17.5314ZM24 13.7701C26.603 13.7701 28.9848 14.7462 30.7939 16.3471C30.6117 16.6074 29.0629 18.6768 25.4187 20.0434C23.7397 16.9588 21.8785 14.4338 21.5922 14.0434C22.3601 13.8612 23.167 13.7701 24 13.7701ZM19.6399 14.7332C19.9132 15.0976 21.7354 17.6356 23.4403 20.6551C18.6508 21.9306 14.4208 21.9046 13.9653 21.9046C14.6291 18.7289 16.7766 16.0868 19.6399 14.7332ZM13.744 24.013C13.744 23.9089 13.744 23.8048 13.744 23.7006C14.1866 23.7137 19.1584 23.7787 24.2733 22.243C24.5727 22.8156 24.846 23.4013 25.1063 23.987C24.9761 24.026 24.833 24.0651 24.7028 24.1041C19.4187 25.8091 16.6074 30.4686 16.3731 30.859C14.7462 29.0499 13.744 26.6421 13.744 24.013ZM24 34.256C21.6312 34.256 19.4447 33.449 17.7137 32.0954C17.8959 31.718 19.9783 27.7093 25.757 25.692C25.7831 25.679 25.7961 25.679 25.8221 25.6659C27.2668 29.4013 27.8525 32.538 28.0087 33.436C26.7722 33.9696 25.4187 34.256 24 34.256ZM29.7137 32.4989C29.6095 31.8742 29.0629 28.8807 27.7224 25.1974C30.9371 24.6898 33.7484 25.5228 34.0998 25.6399C33.6573 28.4902 32.0173 30.9501 29.7137 32.4989Z" fill="#D85888"/>
</g>
<defs>
<clipPath id="clip0_820_7092">
<rect width="24" height="24" fill="white" transform="translate(12 12)"/>
</clipPath>
</defs>
</svg>
