<svg width="48" height="48" viewBox="0 0 48 48" fill="none" xmlns="http://www.w3.org/2000/svg">
<g clip-path="url(#clip0_719_7149)">
<path d="M24 24C24 22.9392 24.4214 21.9217 25.1716 21.1716C25.9217 20.4215 26.9391 20 28 20C29.0609 20 30.0783 20.4215 30.8284 21.1716C31.5786 21.9217 32 22.9392 32 24C32 25.0609 31.5786 26.0783 30.8284 26.8285C30.0783 27.5786 29.0609 28 28 28C26.9391 28 25.9217 27.5786 25.1716 26.8285C24.4214 26.0783 24 25.0609 24 24Z" fill="#1ABCFE"/>
<path d="M16 32C16 30.9391 16.4214 29.9217 17.1716 29.1715C17.9217 28.4214 18.9391 28 20 28H24V32C24 33.0608 23.5786 34.0783 22.8284 34.8284C22.0783 35.5785 21.0609 36 20 36C18.9391 36 17.9217 35.5785 17.1716 34.8284C16.4214 34.0783 16 33.0608 16 32Z" fill="#0ACF83"/>
<path d="M24 12V20H28C29.0609 20 30.0783 19.5786 30.8284 18.8284C31.5786 18.0783 32 17.0609 32 16C32 14.9391 31.5786 13.9217 30.8284 13.1716C30.0783 12.4214 29.0609 12 28 12H24Z" fill="#FF7262"/>
<path d="M16 16C16 17.0609 16.4214 18.0783 17.1716 18.8284C17.9217 19.5786 18.9391 20 20 20H24V12H20C18.9391 12 17.9217 12.4214 17.1716 13.1716C16.4214 13.9217 16 14.9391 16 16Z" fill="#F24E1E"/>
<path d="M16 24C16 25.0609 16.4214 26.0783 17.1716 26.8285C17.9217 27.5786 18.9391 28 20 28H24V20H20C18.9391 20 17.9217 20.4215 17.1716 21.1716C16.4214 21.9217 16 22.9392 16 24Z" fill="#A259FF"/>
</g>
<defs>
<clipPath id="clip0_719_7149">
<rect width="16" height="24" fill="white" transform="translate(16 12)"/>
</clipPath>
</defs>
</svg>
