<svg width="25" height="24" viewBox="0 0 25 24" fill="none" xmlns="http://www.w3.org/2000/svg">
<g clip-path="url(#clip0_1264_7107)">
<path d="M20.947 20.452H17.393V14.883C17.393 13.555 17.366 11.846 15.541 11.846C13.688 11.846 13.405 13.291 13.405 14.785V20.452H9.851V9H13.265V10.561H13.311C13.788 9.661 14.948 8.711 16.681 8.711C20.282 8.711 20.948 11.081 20.948 14.166V20.452H20.947ZM5.837 7.433C4.693 7.433 3.774 6.507 3.774 5.368C3.774 4.23 4.694 3.305 5.837 3.305C6.977 3.305 7.901 4.23 7.901 5.368C7.901 6.507 6.976 7.433 5.837 7.433ZM7.619 20.452H4.055V9H7.619V20.452ZM22.725 0H2.271C1.292 0 0.5 0.774 0.5 1.729V22.271C0.5 23.227 1.292 24 2.271 24H22.722C23.7 24 24.5 23.227 24.5 22.271V1.729C24.5 0.774 23.7 0 22.722 0H22.725Z" fill="#2C64BC"/>
</g>
<defs>
<clipPath id="clip0_1264_7107">
<rect width="24" height="24" fill="white" transform="translate(0.5)"/>
</clipPath>
</defs>
</svg>
