<svg width="48" height="48" viewBox="0 0 48 48" fill="none" xmlns="http://www.w3.org/2000/svg">
<g clip-path="url(#clip0_719_7094)">
<path d="M32.447 32.452H28.893V26.883C28.893 25.555 28.866 23.846 27.041 23.846C25.188 23.846 24.905 25.291 24.905 26.785V32.452H21.351V21H24.765V22.561H24.811C25.288 21.661 26.448 20.711 28.181 20.711C31.782 20.711 32.448 23.081 32.448 26.166V32.452H32.447ZM17.337 19.433C16.193 19.433 15.274 18.507 15.274 17.368C15.274 16.23 16.194 15.305 17.337 15.305C18.477 15.305 19.401 16.23 19.401 17.368C19.401 18.507 18.476 19.433 17.337 19.433ZM19.119 32.452H15.555V21H19.119V32.452ZM34.225 12H13.771C12.792 12 12 12.774 12 13.729V34.271C12 35.227 12.792 36 13.771 36H34.222C35.2 36 36 35.227 36 34.271V13.729C36 12.774 35.2 12 34.222 12H34.225Z" fill="#2C64BC"/>
</g>
<defs>
<clipPath id="clip0_719_7094">
<rect width="24" height="24" fill="white" transform="translate(12 12)"/>
</clipPath>
</defs>
</svg>
