<svg width="48" height="48" viewBox="0 0 48 48" fill="none" xmlns="http://www.w3.org/2000/svg">
<g clip-path="url(#clip0_719_7087)">
<path d="M13.4441 13.0351L26.724 12.0543C28.3553 11.9143 28.7743 12.0087 29.8001 12.7543L34.0392 15.7407C34.7383 16.2543 34.9711 16.3942 34.9711 16.9534V33.3317C34.9711 34.3582 34.5984 34.9654 33.2935 35.058L17.8721 35.9921C16.8929 36.0384 16.4266 35.8985 15.9137 35.245L12.792 31.1856C12.2321 30.4385 12 29.8793 12 29.2255V14.6671C12 13.8279 12.3727 13.128 13.4441 13.0351Z" fill="white"/>
<path fill-rule="evenodd" clip-rule="evenodd" d="M26.724 12.0545L13.4441 13.0354C12.3727 13.128 12 13.8281 12 14.6671V29.2255C12 29.8791 12.2321 30.4383 12.792 31.1856L15.9137 35.2447C16.4266 35.8983 16.8929 36.0384 17.8721 35.9919L33.2938 35.0583C34.5977 34.9654 34.9714 34.3582 34.9714 33.3319V16.9536C34.9714 16.4232 34.7618 16.2703 34.145 15.8177L29.8001 12.7543C28.7746 12.0087 28.3553 11.9143 26.724 12.0543V12.0545ZM18.2208 16.6855C16.9615 16.7703 16.6759 16.7895 15.9607 16.2079L14.1425 14.7617C13.9577 14.5745 14.0506 14.341 14.5162 14.2944L27.2825 13.3615C28.3546 13.2679 28.9128 13.6416 29.3321 13.968L31.5216 15.5544C31.6152 15.6017 31.848 15.8808 31.5679 15.8808L18.384 16.6745L18.2208 16.6858V16.6855ZM16.7527 33.192V19.2881C16.7527 18.6809 16.9392 18.4008 17.4974 18.3538L32.64 17.4672C33.1536 17.4209 33.3857 17.7473 33.3857 18.3535V32.1648C33.3857 32.772 33.2921 33.2856 32.4538 33.3319L17.9633 34.1719C17.125 34.2183 16.753 33.9391 16.753 33.192H16.7527ZM31.0567 20.0335C31.1496 20.4535 31.0567 20.8735 30.6367 20.9215L29.9383 21.06V31.3255C29.3318 31.6519 28.7736 31.8384 28.307 31.8384C27.5614 31.8384 27.3751 31.6049 26.8166 30.9055L22.2494 23.7199V30.672L23.6942 30.9991C23.6942 30.9991 23.6942 31.8391 22.5286 31.8391L19.315 32.0256C19.2214 31.8384 19.315 31.3721 19.6406 31.2792L20.4799 31.0464V21.8544L19.3152 21.7601C19.2216 21.3401 19.4544 20.7336 20.1072 20.6866L23.5553 20.4545L28.3073 27.733V21.2938L27.096 21.1546C27.0024 20.6403 27.3751 20.2666 27.8407 20.221L31.0567 20.0338V20.0335Z" fill="#D16A5E"/>
</g>
<defs>
<clipPath id="clip0_719_7087">
<rect width="24" height="24" fill="white" transform="translate(12 12)"/>
</clipPath>
</defs>
</svg>
