<svg width="48" height="48" viewBox="0 0 48 48" fill="none" xmlns="http://www.w3.org/2000/svg">
<path fill-rule="evenodd" clip-rule="evenodd" d="M36 24C36 30.6276 30.6276 36 24 36C17.3724 36 12 30.6276 12 24C12 17.3724 17.3724 12 24 12C30.6276 12 36 17.3724 36 24Z" fill="#FF6154"/>
<path fill-rule="evenodd" clip-rule="evenodd" d="M25.6 24H22.1998V20.4H25.6C26.0774 20.4 26.5352 20.5896 26.8728 20.9272C27.2104 21.2648 27.4 21.7226 27.4 22.2C27.4 22.6774 27.2104 23.1352 26.8728 23.4728C26.5352 23.8104 26.0774 24 25.6 24ZM25.6 18H19.7998V30H22.1998V26.4H25.6C26.7139 26.4 27.7822 25.9575 28.5699 25.1698C29.3575 24.3822 29.8 23.3139 29.8 22.2C29.8 21.0861 29.3575 20.0178 28.5699 19.2302C27.7822 18.4425 26.7139 18 25.6 18Z" fill="white"/>
</svg>
