<svg width="24" height="24" viewBox="0 0 24 24" fill="none" xmlns="http://www.w3.org/2000/svg">
<g clip-path="url(#clip0_1264_7136)">
<path fill-rule="evenodd" clip-rule="evenodd" d="M24 12C24 18.6276 18.6276 24 12 24C5.3724 24 0 18.6276 0 12C0 5.3724 5.3724 0 12 0C18.6276 0 24 5.3724 24 12Z" fill="#FF6154"/>
<path fill-rule="evenodd" clip-rule="evenodd" d="M13.6 12H10.1998V8.4H13.6C14.0774 8.4 14.5352 8.58964 14.8728 8.92721C15.2104 9.26477 15.4 9.72261 15.4 10.2C15.4 10.6774 15.2104 11.1352 14.8728 11.4728C14.5352 11.8104 14.0774 12 13.6 12ZM13.6 6H7.7998V18H10.1998V14.4H13.6C14.7139 14.4 15.7822 13.9575 16.5699 13.1698C17.3575 12.3822 17.8 11.3139 17.8 10.2C17.8 9.08609 17.3575 8.0178 16.5699 7.23015C15.7822 6.4425 14.7139 6 13.6 6Z" fill="white"/>
</g>
<defs>
<clipPath id="clip0_1264_7136">
<rect width="24" height="24" fill="white"/>
</clipPath>
</defs>
</svg>
