<svg width="48" height="48" viewBox="0 0 48 48" fill="none" xmlns="http://www.w3.org/2000/svg">
<g clip-path="url(#clip0_719_7083)">
<path d="M35.954 16.569C35.069 16.958 34.124 17.223 33.129 17.344C34.143 16.733 34.923 15.77 35.292 14.621C34.341 15.176 33.287 15.58 32.165 15.805C31.269 14.846 29.992 14.246 28.574 14.246C25.857 14.246 23.654 16.449 23.654 19.163C23.654 19.553 23.699 19.928 23.781 20.287C19.691 20.094 16.066 18.13 13.64 15.161C13.213 15.883 12.974 16.722 12.974 17.636C12.974 19.346 13.844 20.849 15.162 21.732C14.355 21.706 13.596 21.484 12.934 21.116V21.177C12.934 23.562 14.627 25.551 16.88 26.004C16.467 26.115 16.031 26.175 15.584 26.175C15.27 26.175 14.969 26.145 14.668 26.089C15.299 28.042 17.113 29.466 19.272 29.506C17.592 30.825 15.463 31.611 13.17 31.611C12.78 31.611 12.391 31.588 12 31.544C14.189 32.938 16.768 33.753 19.557 33.753C28.611 33.753 33.556 26.257 33.556 19.767C33.556 19.558 33.556 19.347 33.541 19.137C34.502 18.448 35.341 17.577 36.001 16.589L35.954 16.569Z" fill="#4A99E9"/>
</g>
<defs>
<clipPath id="clip0_719_7083">
<rect width="24" height="24" fill="white" transform="translate(12 12)"/>
</clipPath>
</defs>
</svg>
