<svg width="32" height="32" viewBox="0 0 32 32" fill="none" xmlns="http://www.w3.org/2000/svg">
<path d="M23.9249 12.2848C23.7178 13.0722 23.5601 13.909 23.2741 14.7063C22.0614 18.0729 20.5135 21.2623 18.0486 23.93C17.6345 24.373 17.2302 24.8356 16.757 25.1998C16.1753 25.6624 15.8893 25.6625 15.3077 25.1703C14.6668 24.6191 14.0654 24.0087 13.5132 23.3591C11.0976 20.4945 9.47078 17.2165 8.38623 13.6432C8.27778 13.2987 8.17918 12.9443 8.1496 12.5899C8.12002 12.3242 8.12988 11.9993 8.25806 11.8025C9.79615 9.42023 11.5314 7.19554 13.6414 5.30553C15.5837 3.56318 16.6091 3.56318 18.5317 5.31538C20.5628 7.15617 22.1995 9.34149 23.6784 11.6351C23.8164 11.7926 23.8362 12.019 23.9249 12.2848Z" fill="black"/>
<path d="M17.4277 27.0209C21.3913 23.6838 23.6195 19.3132 25.2857 14.539C25.3449 14.6178 25.4041 14.6571 25.4238 14.7063C26.3309 16.8227 27.2872 18.9391 27.7506 21.2131C27.8788 21.8332 27.9183 22.4731 27.9873 23.1129C28.0662 23.8611 27.7802 24.5009 27.159 24.8848C26.5774 25.249 25.9464 25.5542 25.3055 25.7609C22.7519 26.5582 20.1193 26.8831 17.4277 27.0209Z" fill="black"/>
<path d="M6.71 14.5095C8.42556 19.3625 10.7031 23.6544 14.6765 27.0111C13.9075 26.952 13.1976 26.9127 12.4976 26.8339C10.4566 26.5976 8.43542 26.2531 6.49309 25.5641C5.9311 25.3672 5.3691 25.0915 4.86627 24.7667C4.19581 24.3336 3.94933 23.6642 4.00848 22.857C4.14652 20.9769 4.71837 19.2345 5.42826 17.5119C5.8325 16.5373 6.2466 15.5825 6.71 14.5095Z" fill="black"/>
</svg>
