<svg width="32" height="32" viewBox="0 0 32 32" fill="none" xmlns="http://www.w3.org/2000/svg">
<path fill-rule="evenodd" clip-rule="evenodd" d="M30.4048 14.3781H24.5751C24.2465 14.3781 23.9785 14.6014 23.9785 14.8747V16.1335C23.9785 16.4077 24.2465 16.6312 24.5751 16.6312H30.4048C30.7321 16.6312 30.9998 16.4077 30.9998 16.1335V14.8747C30.9998 14.6014 30.7321 14.3781 30.4048 14.3781Z" fill="black"/>
<path fill-rule="evenodd" clip-rule="evenodd" d="M7.29808 14.5449H1.58355C1.26265 14.5449 1 14.7516 1 15.0044V16.1699C1 16.4237 1.26265 16.6304 1.58355 16.6304H7.29808C7.61898 16.6304 7.88137 16.4237 7.88137 16.1699V15.0044C7.88137 14.7516 7.61898 14.5449 7.29808 14.5449Z" fill="black"/>
<path fill-rule="evenodd" clip-rule="evenodd" d="M18.2673 21.6889C18.2673 23.8977 16.967 24.4196 15.2808 24.4196H13.6647V17.1483H15.2808C17.0029 17.1483 18.2673 17.916 18.2673 19.9704V21.6889ZM13.618 7.97669H15.2808C17.2142 7.97669 18.0214 8.92731 18.0214 10.3385V11.8411C18.0214 13.1908 17.2488 14.2958 15.2808 14.2958H13.618V7.97669ZM18.5834 15.7687C20.5163 15.3383 21.4992 14.2647 21.6057 11.8411L21.64 10.3385C21.64 6.25818 19.3216 5 15.2808 5H13.0389H11.8672H10.697C10.3773 5 10.1167 5.22757 10.1167 5.50697V26.8278C10.1167 27.1061 10.3773 27.3336 10.697 27.3336H11.8672H13.0389H15.2808C20.1649 27.3336 21.9213 25.8308 21.9213 21.6889V19.9704C21.9213 16.2903 19.8488 16.0747 18.5834 15.7687Z" fill="black"/>
</svg>
