<svg width="32" height="32" viewBox="0 0 32 32" fill="none" xmlns="http://www.w3.org/2000/svg">
<circle cx="24" cy="15" r="2" fill="black"/>
<circle cx="24" cy="23" r="2" fill="black"/>
<path d="M4.69141 19.254C4.69141 16.9094 5.21295 15.1438 6.25604 13.9572C7.29914 12.7706 8.76808 12.1772 10.6629 12.1772C11.3232 12.1772 11.9452 12.2921 12.529 12.5217C13.1223 12.7514 13.5768 13.0242 13.8926 13.34V6.57899C13.8926 6.13879 14.0457 5.76557 14.352 5.45934C14.6678 5.15311 15.0458 5 15.486 5C15.9262 5 16.2994 5.15311 16.6056 5.45934C16.9214 5.76557 17.0793 6.13879 17.0793 6.57899V20.4311C17.0793 22.3259 16.5243 23.7804 15.4142 24.7948C14.3041 25.8092 12.8304 26.3164 10.993 26.3164C8.97383 26.3164 7.41876 25.7279 6.32782 24.5508C5.23688 23.3737 4.69141 21.6081 4.69141 19.254ZM7.84939 19.254C7.84939 20.6894 8.11734 21.7756 8.65324 22.5125C9.18914 23.2398 9.96907 23.6034 10.993 23.6034C11.8639 23.6034 12.5624 23.3259 13.0888 22.7708C13.6247 22.2062 13.8926 21.4263 13.8926 20.4311V16.3688C13.8639 16.3305 13.8209 16.2778 13.7634 16.2109C13.706 16.1439 13.5768 16.0242 13.3759 15.852C13.1845 15.6797 12.9835 15.5266 12.773 15.3926C12.5624 15.2587 12.2945 15.139 11.9691 15.0338C11.6438 14.9285 11.3184 14.8759 10.993 14.8759C9.97864 14.8759 9.19871 15.2443 8.65324 15.9812C8.11734 16.718 7.84939 17.809 7.84939 19.254Z" fill="black"/>
</svg>
