<svg width="32" height="32" viewBox="0 0 32 32" fill="none" xmlns="http://www.w3.org/2000/svg">
<path d="M17.5592 7.45524C17.5592 6.91357 17.1217 6.47607 16.5801 6.47607C16.0592 6.47607 15.6217 6.91357 15.6217 7.45524V8.64274C12.9551 8.93441 11.7884 10.5386 11.7884 12.3927C11.7884 17.4136 19.3926 16.0177 19.3926 19.0594C19.3926 20.3511 18.4759 20.9761 16.5801 20.9761C15.1426 20.9761 14.0384 20.2677 13.1634 19.3927C12.9551 19.1844 12.7051 18.9344 12.2467 18.9344C11.6426 18.9344 11.1426 19.4344 11.1426 20.0594C11.1426 20.2677 11.2051 20.4761 11.3092 20.6427C12.0176 21.7886 13.6009 22.8719 15.6217 23.1219V24.2886C15.6217 24.8302 16.0592 25.2677 16.5801 25.2677C17.1217 25.2677 17.5592 24.8302 17.5592 24.2886V23.1219C20.3509 22.8511 21.8092 21.3511 21.8092 19.0594C21.8092 13.8511 14.2051 15.1219 14.2051 12.3927C14.2051 11.5594 14.8509 10.7469 16.5801 10.7469C17.7676 10.7469 18.8509 11.2261 19.4967 11.8511C19.8092 12.1427 20.1009 12.3094 20.3926 12.3094C21.0176 12.3094 21.5176 11.8094 21.5176 11.2052C21.5176 10.9552 21.4342 10.7261 21.3092 10.5386C20.6009 9.53857 19.2259 8.87191 17.5592 8.66357V7.45524Z" fill="black" stroke="black"/>
<path d="M22.4524 30.2858H18.2857C11.5514 30.2858 8.18419 30.2858 6.0921 28.1937C6.09209 28.1937 6.09209 28.1937 6.09209 28.1937C4 26.1016 4 22.7344 4 16.0001V14.2144C4 9.19842 4 6.69045 5.20379 4.88885C5.72492 4.10892 6.39457 3.43928 7.1745 2.91814C8.9761 1.71436 11.4841 1.71436 16.5 1.71436V1.71436C21.5159 1.71436 24.0239 1.71436 25.8255 2.91814C26.6054 3.43928 27.2751 4.10892 27.7962 4.88885C29 6.69045 29 9.19842 29 14.2144V24.3334" stroke="black" stroke-width="3" stroke-linecap="round"/>
</svg>
