<svg width="32" height="32" viewBox="0 0 32 32" fill="none" xmlns="http://www.w3.org/2000/svg">
<path d="M13.4563 4.05978C13.3768 4.10782 13.29 4.17645 13.2611 4.21763C13.2322 4.2588 13.2033 4.75978 13.2033 5.33625C13.2033 5.90586 13.1743 6.39311 13.1454 6.4137C13.1093 6.43429 12.7333 6.03625 12.3068 5.53527C11.779 4.9039 11.4754 4.6088 11.3525 4.58135C11.1356 4.54704 9.292 5.34312 8.9016 5.65194C8.32323 6.09802 8.25816 6.60586 8.50397 8.53429C8.57626 9.14507 8.67748 10.0647 8.72086 10.5725C8.8293 11.9245 8.95944 12.2813 9.58842 12.9402C9.78362 13.146 9.96436 13.3931 9.99328 13.496C10.0367 13.6676 9.99328 14.1 9.51612 18.0872C9.22694 20.5166 9.29923 20.2696 8.84376 20.4068C8.6341 20.4686 8.40275 20.5578 8.33769 20.6058C8.22201 20.6882 7.9039 21.999 7.16648 25.4441C6.94959 26.4597 6.94959 26.5215 7.13756 26.7754C7.57857 27.3656 9.08234 27.7842 11.3669 27.9421C13.4997 28.0931 18.4592 27.9352 21.4451 27.6264C23.6068 27.4068 24.5828 27.1048 24.2791 26.748C24.243 26.7068 24.1056 26.1578 23.9827 25.5333C22.9923 20.5578 23.0646 20.846 22.826 20.647C22.6163 20.4686 22.0018 20.249 21.7198 20.249C21.5608 20.249 21.5391 20.2009 21.4885 19.6656C21.4668 19.4392 21.315 18.2039 21.1487 16.9205C20.9896 15.6372 20.8378 14.3264 20.8161 14.0039C20.78 13.3519 20.7004 13.5098 21.5102 12.5353C21.8138 12.1578 21.8283 12.1304 21.9584 11.2725C22.1102 10.2568 22.4573 7.02448 22.4573 6.59899C22.4573 6.27645 22.3344 6.0088 22.0813 5.79606C21.8572 5.59704 19.6955 4.53331 19.522 4.53331C19.3196 4.54018 19.2184 4.63625 18.6111 5.39115C18.3074 5.7686 17.9604 6.18723 17.8375 6.31762L17.6206 6.55782L17.6134 5.34312C17.6134 4.45782 17.5917 4.11469 17.5266 4.08037C17.3603 3.98429 13.6154 3.97057 13.4563 4.05978ZM15.0179 4.75978C14.3889 5.05488 14.3962 5.02743 14.3817 7.25782C14.3672 8.76762 14.3456 9.24115 14.2733 9.30291C14.2226 9.35095 13.7093 9.52938 13.131 9.70781C11.9453 10.0647 10.8536 10.4627 11.2512 10.4009C11.3886 10.3735 11.8441 10.298 12.2634 10.2294C14.3817 9.87252 16.5145 9.92056 18.2568 10.3666C18.4303 10.4078 18.5532 10.4558 18.546 10.4696C18.5315 10.4764 18.2568 10.4627 17.9387 10.4353C16.5434 10.2911 14.7649 10.3804 13.4202 10.6549C11.8369 10.9774 10.9548 11.3343 10.2969 11.9313C10.0656 12.1372 9.86315 12.2951 9.84869 12.2813C9.68964 12.096 9.50166 11.3411 9.40768 10.5039C9.10403 7.76566 9.01005 6.74998 9.04619 6.58527C9.10403 6.33135 9.292 6.18037 10.1668 5.70684L10.9259 5.29508L10.9693 5.51468C10.9982 5.63821 11.056 6.13233 11.1067 6.62645C11.1573 7.1137 11.2223 7.56664 11.244 7.6284C11.2802 7.72448 11.4392 7.69703 12.502 7.45684C13.4563 7.23723 13.7383 7.14801 13.8033 7.03821C13.8539 6.95586 13.8973 6.4686 13.9118 5.83723C13.9335 4.9588 13.9551 4.75978 14.0564 4.68429C14.1287 4.63625 14.3962 4.60194 14.7504 4.60194L15.336 4.6088L15.0179 4.75978ZM19.4208 5.34312C19.4208 5.44606 19.3919 5.77547 19.3485 6.07743C19.3123 6.37939 19.269 6.7637 19.2545 6.93527C19.2184 7.27154 19.1605 7.29213 18.7484 7.14801C18.4882 7.05194 18.4954 6.81174 18.7629 6.24213C18.8713 6.00194 19.0376 5.6588 19.1171 5.47351C19.2834 5.10978 19.4208 5.05488 19.4208 5.34312ZM17.6857 11.348C18.5243 11.5402 19.363 11.8147 19.2256 11.8558C19.1461 11.8833 18.4159 11.7598 17.8736 11.6294L17.6857 11.5882V12.3156C17.6857 12.7137 17.7146 13.0431 17.7435 13.0431C17.8736 13.0431 19.869 13.4411 19.9052 13.4755C19.9269 13.496 19.9196 13.5441 19.8979 13.5784C19.8763 13.6196 19.5943 13.5921 19.2039 13.5166C18.2062 13.3245 16.5868 13.1804 15.3722 13.1804C14.3745 13.1804 12.2562 13.3382 12.1044 13.4274C11.9742 13.5029 12.0971 11.7323 12.2345 11.6019C12.3357 11.5058 12.9864 11.348 13.7672 11.2245C14.7576 11.0666 16.7241 11.1353 17.6857 11.348ZM11.6778 12.4872C11.6489 12.8578 11.591 13.2215 11.5549 13.2902C11.5115 13.3656 11.3452 13.4892 11.1862 13.5784L10.8898 13.7362V13.1666C10.8898 12.8509 10.9259 12.4804 10.9621 12.3431C11.0488 12.0617 11.3308 11.8078 11.5694 11.8078C11.7212 11.8078 11.7212 11.8284 11.6778 12.4872ZM16.8253 13.6882C17.4037 13.7774 17.9098 13.8666 17.9532 13.8872C17.9965 13.9147 18.0472 14.1754 18.0688 14.4774C18.1122 15.0951 18.2279 15.3353 18.5894 15.5617C19.0159 15.8294 19.0593 15.7539 19.0593 14.7931C19.0593 14.3264 19.0882 13.9284 19.1244 13.9009C19.269 13.8186 19.363 14.1754 19.363 14.8137C19.363 15.6647 19.4063 15.7676 19.8184 15.8637C20.1438 15.9392 20.2667 16.0215 20.1582 16.0833C20.1293 16.1039 19.8112 16.0627 19.4569 15.9941C19.0955 15.9186 18.7267 15.8637 18.6328 15.8568H18.4592L18.5098 16.8313C18.5677 18.0117 18.5894 18.0392 19.4714 18.2176C20.0498 18.3343 20.5559 18.5127 20.4836 18.5745C20.4619 18.595 20.0715 18.547 19.6088 18.4647C19.1461 18.3892 18.734 18.3411 18.6978 18.3617C18.6544 18.3823 18.6255 18.4921 18.6255 18.6088C18.6255 18.7872 18.6038 18.8078 18.3725 18.8078C17.9459 18.8078 17.9242 18.7117 17.8809 16.8519C17.8375 15.0196 17.7724 14.6421 17.3965 14.2784C17.0856 13.9764 16.8904 13.9284 15.7264 13.8872C14.7143 13.846 14.6564 13.8529 14.3672 14.0107C14.1431 14.1274 14.0202 14.2647 13.8684 14.546C13.6732 14.9304 13.6732 14.9372 13.6515 16.6117C13.6443 17.5382 13.6154 18.3617 13.5937 18.4509C13.5647 18.5813 13.2105 18.8078 13.0297 18.8078C13.0153 18.8078 12.9791 18.6843 12.9502 18.5333C12.9213 18.3823 12.8707 18.245 12.8418 18.2245C12.8056 18.2039 12.22 18.2794 11.5332 18.396C10.8536 18.5127 10.2752 18.5882 10.2536 18.5745C10.2319 18.5539 10.2608 18.149 10.3114 17.6754C10.3765 17.0852 10.4415 16.7627 10.521 16.6735C10.6367 16.5362 11.0705 16.4196 12.0827 16.2686C12.7406 16.1725 13.131 16.0147 13.131 15.85C13.131 15.7813 13.1093 15.7196 13.0804 15.7196C13.0442 15.7196 12.4586 15.8088 11.779 15.9117L10.5283 16.1039V15.898C10.5355 15.7813 10.5789 15.349 10.6295 14.9372C10.6946 14.3813 10.7524 14.1686 10.8464 14.1068C10.9621 14.0245 12.1477 13.7843 12.9358 13.6882L13.2756 13.6402V14.3539C13.2828 14.999 13.29 15.0539 13.384 14.9372C13.4418 14.8617 13.4924 14.6627 13.4924 14.4911C13.4924 14.2441 13.5358 14.1274 13.7093 13.9353C13.9118 13.7088 13.9624 13.6882 14.5914 13.6196C15.5529 13.5098 15.6541 13.5098 16.8253 13.6882Z" fill="black"/>
</svg>
