<svg width="32" height="32" viewBox="0 0 32 32" fill="none" xmlns="http://www.w3.org/2000/svg">
<path d="M21.5177 9C23.2296 9 24.5856 9.52096 25.5856 10.5629C26.6026 11.5874 27.1111 13.133 27.1111 15.1994V15.8246H23.1448C23.1448 14.7132 22.916 13.8883 22.4584 13.35C22.0177 12.7943 21.3821 12.5165 20.5515 12.5165C19.6193 12.5165 18.882 12.8291 18.3396 13.4542C17.7972 14.062 17.526 14.9737 17.526 16.1893V23.2222H13.5597V15.8246C13.5597 13.6192 12.6953 12.5165 10.9664 12.5165C10.0511 12.5165 9.32225 12.8291 8.77986 13.4542C8.23746 14.062 7.96626 14.9737 7.96626 16.1893V23.2222H4V9.20838H7.78829V10.8234C8.29679 10.2329 8.91545 9.78144 9.6443 9.46886C10.3901 9.15629 11.2037 9 12.0851 9C13.0512 9 13.9241 9.1997 14.7038 9.5991C15.4835 9.98114 16.1107 10.5455 16.5853 11.2922C17.1446 10.5629 17.848 9.99851 18.6955 9.5991C19.56 9.1997 20.5007 9 21.5177 9Z" fill="black"/>
<path d="M21.5177 9C23.2296 9 24.5856 9.52096 25.5856 10.5629C26.6026 11.5874 27.1111 13.133 27.1111 15.1994V15.8246H23.1448C23.1448 14.7132 22.916 13.8883 22.4584 13.35C22.0177 12.7943 21.3821 12.5165 20.5515 12.5165C19.6193 12.5165 18.882 12.8291 18.3396 13.4542C17.7972 14.062 17.526 14.9737 17.526 16.1893V23.2222H13.5597V15.8246C13.5597 13.6192 12.6953 12.5165 10.9664 12.5165C10.0511 12.5165 9.32225 12.8291 8.77986 13.4542C8.23746 14.062 7.96626 14.9737 7.96626 16.1893V23.2222H4V9.20838H7.78829V10.8234C8.29679 10.2329 8.91545 9.78144 9.6443 9.46886C10.3901 9.15629 11.2037 9 12.0851 9C13.0512 9 13.9241 9.1997 14.7038 9.5991C15.4835 9.98114 16.1107 10.5455 16.5853 11.2922C17.1446 10.5629 17.848 9.99851 18.6955 9.5991C19.56 9.1997 20.5007 9 21.5177 9Z" fill="black" fill-opacity="0.1"/>
<ellipse cx="25.3337" cy="20.5555" rx="2.66667" ry="2.66667" fill="black"/>
</svg>
