<svg width="32" height="32" viewBox="0 0 32 32" fill="none" xmlns="http://www.w3.org/2000/svg">
<path d="M7.15408 3.17229C7.87035 1.91687 9.20471 1.14185 10.6501 1.14185H18.3941C21.2855 1.14185 23.9548 2.69251 25.387 5.2042L26.4727 7.10829C26.604 7.33849 26.6391 7.61118 26.5706 7.86715L25.1615 13.1259C25.0177 13.6627 24.4665 13.9814 23.9296 13.8379C21.862 13.2855 18.941 12.5083 17.8854 12.2276C17.6275 12.159 17.41 11.9915 17.2762 11.7606L15.6892 9.02401L13.2211 13.299C12.9223 13.8165 12.1469 13.7145 11.9922 13.1372L10.97 9.32232C10.6823 8.2487 9.57877 7.61161 8.50514 7.89928L5.27986 8.7635C4.70419 8.91775 4.22824 8.30078 4.52357 7.78312L7.15408 3.17229Z" fill="#646464"/>
<path d="M2.72931 11.5303C2.4698 11.5999 2.24888 11.7703 2.11574 12.0037L1.05781 13.858C-0.37801 16.3748 -0.350414 19.4691 1.13003 21.96L5.12999 28.6896C5.85543 29.91 7.17013 30.658 8.5899 30.658H13.6552C14.2528 30.658 14.5521 29.9355 14.1295 29.5129L11.6666 27.0499C10.8807 26.264 10.8807 24.9897 11.6666 24.2038L14.1295 21.7409C14.5521 21.3183 14.2528 20.5957 13.6552 20.5957H9.00834L10.7807 17.526C10.9141 17.2948 10.9503 17.0201 10.8812 16.7623L9.28657 10.8149C9.14267 10.2782 8.59097 9.9597 8.05423 10.1035L2.72931 11.5303Z" fill="#646464"/>
<path d="M18.5376 20.5957C18.2707 20.5957 18.0148 20.7017 17.8261 20.8904L13.8011 24.9153C13.4082 25.3083 13.4082 25.9454 13.8011 26.3384L17.8261 30.3633C18.0148 30.552 18.2707 30.658 18.5376 30.658H20.4931C23.3381 30.658 25.9717 29.1563 27.4207 26.7079L31.4389 19.9182C32.1752 18.674 32.1877 17.1305 31.4715 15.8746L28.9034 11.3709C28.6065 10.8503 27.8279 10.9507 27.6727 11.5296L26.845 14.6186C26.5573 15.6923 25.4538 16.3294 24.3802 16.0417L20.4772 14.9959C19.8993 14.841 19.4231 15.4628 19.7233 15.9804L22.3997 20.5957H18.5376Z" fill="#646464"/>
<mask id="mask0_754_8374" style="mask-type:alpha" maskUnits="userSpaceOnUse" x="0" y="1" width="32" height="30">
<path d="M7.15408 3.17229C7.87035 1.91687 9.20471 1.14185 10.6501 1.14185H18.3941C21.2855 1.14185 23.9548 2.69251 25.387 5.2042L26.4727 7.10829C26.604 7.33849 26.6391 7.61118 26.5706 7.86715L25.1615 13.1259C25.0177 13.6627 24.4665 13.9814 23.9296 13.8379C21.862 13.2855 18.941 12.5083 17.8854 12.2276C17.6275 12.159 17.41 11.9915 17.2762 11.7606L15.6892 9.02401L13.2211 13.299C12.9223 13.8165 12.1469 13.7145 11.9922 13.1372L10.97 9.32232C10.6823 8.2487 9.57877 7.61161 8.50514 7.89928L5.27986 8.7635C4.70419 8.91775 4.22824 8.30078 4.52357 7.78312L7.15408 3.17229Z" fill="#08D385"/>
<path d="M2.72931 11.5303C2.4698 11.5999 2.24888 11.7703 2.11574 12.0037L1.05781 13.858C-0.37801 16.3748 -0.350414 19.4691 1.13003 21.96L5.12999 28.6896C5.85543 29.91 7.17013 30.658 8.5899 30.658H13.6552C14.2528 30.658 14.5521 29.9355 14.1295 29.5129L11.6666 27.0499C10.8807 26.264 10.8807 24.9897 11.6666 24.2038L14.1295 21.7409C14.5521 21.3183 14.2528 20.5957 13.6552 20.5957H9.00834L10.7807 17.526C10.9141 17.2948 10.9503 17.0201 10.8812 16.7623L9.28657 10.8149C9.14267 10.2782 8.59097 9.9597 8.05423 10.1035L2.72931 11.5303Z" fill="#08D385"/>
<path d="M18.5376 20.5957C18.2707 20.5957 18.0148 20.7017 17.8261 20.8904L13.8011 24.9153C13.4082 25.3083 13.4082 25.9454 13.8011 26.3384L17.8261 30.3633C18.0148 30.552 18.2707 30.658 18.5376 30.658H20.4931C23.3381 30.658 25.9717 29.1563 27.4207 26.7079L31.4389 19.9182C32.1752 18.674 32.1877 17.1305 31.4715 15.8746L28.9034 11.3709C28.6065 10.8503 27.8279 10.9507 27.6727 11.5296L26.845 14.6186C26.5573 15.6923 25.4538 16.3294 24.3802 16.0417L20.4772 14.9959C19.8993 14.841 19.4231 15.4628 19.7233 15.9804L22.3997 20.5957H18.5376Z" fill="#08D385"/>
</mask>
<g mask="url(#mask0_754_8374)">
<path opacity="0.15" d="M0.0552278 18.8071L-1.0625 12.7124L5.21662 9.73809L9.67812 9.35252C9.67812 9.35252 13.2383 20.4885 13.7517 20.5959C11.7943 20.5943 0.483504 20.5958 0.483504 20.5958C0.269439 20.0126 0.12673 19.4147 0.0552278 18.8071Z" fill="black"/>
<path opacity="0.15" d="M25.2388 29.1116L21.3548 31.9354L15.9019 30.1178L12.2666 25.4359C12.2666 25.4359 20.0827 16.7909 19.9397 16.3557C20.9171 18.0516 26.5737 27.8464 26.5737 27.8464C26.1757 28.3233 25.7293 28.7459 25.2388 29.1116Z" fill="black"/>
<path opacity="0.15" d="M24.2853 1.38282C24.2853 1.38282 29.217 6.97984 27.8543 8.41622C26.7045 9.62831 27.2536 14.0377 24.7147 14.5852C21.0488 15.3758 14.1656 12.0908 13.4656 12.8734C14.4457 11.179 20.2555 1.12639 20.2555 1.12639C20.8676 1.23257 23.7233 1.14092 24.2853 1.38282Z" fill="black"/>
</g>
<path opacity="0.1" d="M13.7516 20.596C11.7942 20.5945 0.483432 20.5959 0.483432 20.5959C0.304036 20.1072 0.0406294 19.3719 0.00927734 18.0632C0.00927734 18.0632 11.7194 20.1711 13.7516 20.596Z" fill="black"/>
<path opacity="0.1" d="M19.9375 16.3529C20.9149 18.0488 26.5715 27.8435 26.5715 27.8435C26.238 28.2433 25.7329 28.839 24.6152 29.5205C24.6152 29.5205 20.5856 18.3253 19.9375 16.3529Z" fill="black"/>
<path opacity="0.1" d="M13.4659 12.8489C14.446 11.1545 20.1309 1.3391 20.1309 1.3391C20.6439 1.42809 21.3378 1.63139 22.4868 2.25855C22.4868 2.25855 14.85 11.3014 13.4659 12.8489Z" fill="black"/>
</svg>
