<svg width="32" height="32" viewBox="0 0 32 32" fill="none" xmlns="http://www.w3.org/2000/svg">
<path d="M3.53849 21.7632C3.20201 22.5072 3.14579 23.1394 3.41758 23.6102C4.56874 25.6039 11.168 23.949 18.1575 19.9135C25.1471 15.8782 29.8801 10.9905 28.7289 8.99663C28.4571 8.5259 27.8817 8.25855 27.069 8.1779M21.0037 24.6666L22.3333 26.9695M9.66658 5.03027L12.1509 9.33325M25.9999 15.9999C25.9999 21.5227 21.5227 25.9999 15.9999 25.9999C10.4771 25.9999 5.99991 21.5227 5.99991 15.9999C5.99991 10.4771 10.4771 5.99993 15.9999 5.99993C21.5227 5.99993 25.9999 10.4771 25.9999 15.9999Z" stroke="black" stroke-width="2.66667" stroke-linecap="round" stroke-linejoin="round"/>
</svg>
