<svg width="32" height="32" viewBox="0 0 32 32" fill="none" xmlns="http://www.w3.org/2000/svg">
<path d="M5.36911 17.6833C5.73564 17.134 6.28978 16.7667 6.96771 16.5875L23.8866 12.0066C24.5542 11.8302 25.2131 11.8713 25.7932 12.1759C26.3908 12.4543 26.7637 12.9239 26.9228 13.5096C27.0844 14.1044 26.9949 14.7017 26.6284 15.251C26.2694 15.789 25.7139 16.1344 25.0554 16.3084L8.13655 20.8893C7.47722 21.0635 6.82412 21.0379 6.23207 20.7711L6.20424 20.7585L6.17764 20.7441C5.61196 20.4378 5.2574 19.9647 5.10025 19.3863C4.94329 18.8087 5.01011 18.2213 5.36911 17.6833Z" fill="black"/>
<path fill-rule="evenodd" clip-rule="evenodd" d="M23.0315 14.743C23.3424 15.8869 22.525 17.0019 21.25 17.3388C18.1579 18.1558 15.6066 18.6365 13.0634 18.2186C10.5202 17.8006 8.32537 16.6195 5.86707 14.8902C4.85343 14.1772 4.70737 12.8243 5.54086 11.8684C6.37434 10.9125 7.87173 10.7156 8.88538 11.4286C11.1562 13.026 12.6606 13.7275 14.1214 13.9676C15.5823 14.2077 17.1438 13.8137 20 13.059C21.275 12.7221 22.7207 13.599 23.0315 14.743Z" fill="black"/>
</svg>
