<svg width="32" height="32" viewBox="0 0 32 32" fill="none" xmlns="http://www.w3.org/2000/svg">
<path d="M5.90711 6.01296C7.3495 5.92227 8.97278 6.30875 10.323 7.13923C11.6731 7.96971 12.7502 9.24418 13.3198 10.5725C13.918 11.8881 14.1346 13.5426 13.8391 15.0999C13.5437 16.6573 12.7361 18.1175 11.6975 19.1226C11.262 19.5752 10.5208 19.8014 9.90684 19.669C9.28702 19.5673 8.68018 19.0854 8.44074 18.5047L4.17038 8.83648C3.90241 8.2684 3.95488 7.49524 4.29714 6.96856C4.61284 6.42556 5.27923 6.03001 5.90711 6.01296Z" fill="black"/>
<path d="M27.9619 7.06178C28.0126 6.95147 28.0136 6.80975 27.9644 6.69876C27.9185 6.58634 27.8158 6.48873 27.7012 6.44874C26.1277 5.83178 24.002 5.82531 22.2043 6.58987C20.4064 7.35443 18.9366 8.89005 18.2895 10.4513L12.173 24.3033C12.1223 24.4136 12.1213 24.5554 12.1705 24.6663C12.2164 24.7787 12.3191 24.8763 12.4337 24.9163C14.0072 25.5333 16.1328 25.5398 17.9307 24.7752C19.7284 24.0106 21.1984 22.475 21.8454 20.9138L27.9619 7.06178Z" fill="black"/>
</svg>
