<svg width="32" height="32" viewBox="0 0 32 32" fill="none" xmlns="http://www.w3.org/2000/svg">
<path d="M16 26.6666V9.33325" stroke="black" stroke-width="2.66667" stroke-linecap="round" stroke-linejoin="round"/>
<path d="M16 7.99992C16 6.52716 17.1939 5.33325 18.6667 5.33325H25.1191C26.0761 5.33325 26.9597 5.84601 27.4345 6.67688L28.5773 8.67688C29.0458 9.4967 29.0458 10.5031 28.5773 11.323L27.4345 13.323C26.9597 14.1538 26.0761 14.6666 25.1191 14.6666H18.6667C17.1939 14.6666 16 13.4727 16 11.9999V7.99992Z" stroke="black" stroke-width="2.66667" stroke-linecap="round" stroke-linejoin="round"/>
<path d="M16 11.9999C16 10.5272 14.8061 9.33325 13.3333 9.33325H6.88086C5.92391 9.33325 5.04033 9.84601 4.56555 10.6769L3.42269 12.6769C2.95422 13.4967 2.95422 14.5031 3.42269 15.323L4.56554 17.323C5.04033 18.1538 5.92391 18.6666 6.88086 18.6666H13.3333C14.8061 18.6666 16 17.4727 16 15.9999V11.9999Z" stroke="black" stroke-width="2.66667" stroke-linecap="round" stroke-linejoin="round"/>
</svg>
