<svg width="32" height="32" viewBox="0 0 32 32" fill="none" xmlns="http://www.w3.org/2000/svg">
<path d="M21.2175 14.1645C21.0735 14.7118 20.9639 15.2933 20.7651 15.8475C19.9223 18.1873 18.8464 20.404 17.1333 22.2581C16.8455 22.566 16.5645 22.8876 16.2356 23.1407C15.8313 23.4622 15.6325 23.4622 15.2283 23.1202C14.7829 22.7371 14.3649 22.3129 13.9811 21.8613C12.3022 19.8704 11.1715 17.5921 10.4177 15.1086C10.3424 14.8691 10.2738 14.6228 10.2533 14.3766C10.2327 14.1919 10.2396 13.9661 10.3287 13.8292C11.3977 12.1735 12.6037 10.6273 14.0702 9.31375C15.4201 8.10278 16.1328 8.10278 17.4691 9.32059C18.8807 10.6 20.0182 12.1188 21.0461 13.7129C21.1421 13.8224 21.1558 13.9798 21.2175 14.1645Z" fill="#293BEB"/>
<path d="M16.7017 24.4064C19.4564 22.0871 21.0051 19.0494 22.1631 15.7312C22.2043 15.7859 22.2454 15.8133 22.2591 15.8475C22.8895 17.3185 23.5542 18.7894 23.8763 20.3698C23.9654 20.8008 23.9928 21.2456 24.0408 21.6903C24.0956 22.2102 23.8968 22.6549 23.4651 22.9217C23.0609 23.1749 22.6223 23.387 22.1768 23.5306C20.4021 24.0848 18.5724 24.3106 16.7017 24.4064Z" fill="#293BEB"/>
<path d="M9.25265 15.7107C10.445 19.0836 12.0279 22.0666 14.7895 24.3995C14.255 24.3585 13.7616 24.3311 13.2751 24.2764C11.8566 24.1122 10.4519 23.8728 9.10189 23.3938C8.71129 23.257 8.32069 23.0654 7.97121 22.8397C7.50524 22.5386 7.33392 22.0734 7.37504 21.5124C7.47097 20.2056 7.86843 18.9946 8.36181 17.7974C8.64277 17.1201 8.93057 16.4564 9.25265 15.7107Z" fill="#293BEB"/>
</svg>
