<svg width="32" height="32" viewBox="0 0 32 32" fill="none" xmlns="http://www.w3.org/2000/svg">
<path fill-rule="evenodd" clip-rule="evenodd" d="M25.6035 15.2519H21.7171C21.498 15.2519 21.3193 15.4008 21.3193 15.583V16.4222C21.3193 16.605 21.498 16.754 21.7171 16.754H25.6035C25.8217 16.754 26.0002 16.605 26.0002 16.4222V15.583C26.0002 15.4008 25.8217 15.2519 25.6035 15.2519Z" fill="#ED1D24"/>
<path fill-rule="evenodd" clip-rule="evenodd" d="M10.1987 15.3633H6.38903C6.1751 15.3633 6 15.5011 6 15.6696V16.4466C6 16.6158 6.1751 16.7536 6.38903 16.7536H10.1987C10.4127 16.7536 10.5876 16.6158 10.5876 16.4466V15.6696C10.5876 15.5011 10.4127 15.3633 10.1987 15.3633Z" fill="#00AEEF"/>
<path fill-rule="evenodd" clip-rule="evenodd" d="M17.5109 20.126C17.5109 21.5985 16.644 21.9464 15.5199 21.9464H14.4425V17.0989H15.5199C16.6679 17.0989 17.5109 17.6106 17.5109 18.9803V20.126ZM14.4113 10.9845H15.5199C16.8088 10.9845 17.3469 11.6182 17.3469 12.559V13.5608C17.3469 14.4605 16.8319 15.1972 15.5199 15.1972H14.4113V10.9845ZM17.7216 16.1791C19.0102 15.8922 19.6654 15.1764 19.7365 13.5608L19.7594 12.559C19.7594 9.83879 18.2137 9 15.5199 9H14.0253H13.2442H12.464C12.2509 9 12.0771 9.15171 12.0771 9.33798V23.5519C12.0771 23.7374 12.2509 23.8891 12.464 23.8891H13.2442H14.0253H15.5199C18.7759 23.8891 19.9469 22.8872 19.9469 20.126V18.9803C19.9469 16.5269 18.5652 16.3831 17.7216 16.1791Z" fill="black"/>
</svg>
