<svg width="32" height="32" viewBox="0 0 32 32" fill="none" xmlns="http://www.w3.org/2000/svg">
<path d="M11.7051 24.5C9.63732 13.473 20.5 19.5 20.5 15C20.5 10.5 11.7051 15.5405 11.7051 7.27026" stroke="black" stroke-width="2.75676" stroke-linecap="round"/>
<path d="M3 26C3 24.8954 3.89543 24 5 24H21C22.1046 24 23 24.8954 23 26V26C23 27.1046 22.1046 28 21 28H5C3.89543 28 3 27.1046 3 26V26Z" fill="black"/>
<rect x="2" y="17" width="7" height="3" rx="1.5" fill="black"/>
<rect x="23" y="13" width="7" height="3" rx="1.5" fill="black"/>
<rect x="4" y="4" width="16" height="3" rx="1.5" fill="black"/>
<path fill-rule="evenodd" clip-rule="evenodd" d="M6.16738 3.98901C6.11211 4.1454 6.08203 4.3137 6.08203 4.48901C6.08203 5.31744 6.7536 5.98901 7.58203 5.98901H16.582C17.4105 5.98901 18.082 5.31744 18.082 4.48901C18.082 4.3137 18.052 4.1454 17.9967 3.98901H17.582C16.9289 3.98901 16.3733 3.57161 16.1674 2.98901H7.99668C7.79076 3.57161 7.23514 3.98901 6.58203 3.98901H6.16738Z" fill="black"/>
<rect x="7.9209" y="2" width="8.33008" height="3" rx="1.5" fill="black"/>
</svg>
