<svg width="32" height="32" viewBox="0 0 32 32" fill="none" xmlns="http://www.w3.org/2000/svg">
<path d="M14.8422 7.54484C14.7826 7.58087 14.7175 7.63234 14.6958 7.66322C14.6741 7.6941 14.6524 8.06984 14.6524 8.50219C14.6524 8.92939 14.6308 9.29484 14.6091 9.31028C14.582 9.32572 14.3 9.02719 13.9801 8.65145C13.5843 8.17793 13.3565 7.9566 13.2643 7.93601C13.1017 7.91028 11.719 8.50734 11.4262 8.73895C10.9924 9.07351 10.9436 9.45439 11.128 10.9007C11.1822 11.3588 11.2581 12.0485 11.2906 12.4294C11.372 13.4434 11.4696 13.711 11.9413 14.2051C12.0877 14.3595 12.2233 14.5448 12.245 14.622C12.2775 14.7507 12.245 15.075 11.8871 18.0654C11.6702 19.8875 11.7244 19.7022 11.3828 19.8051C11.2256 19.8514 11.0521 19.9183 11.0033 19.9544C10.9165 20.0161 10.6779 20.9992 10.1249 23.583C9.96219 24.3448 9.96219 24.3911 10.1032 24.5816C10.4339 25.0242 11.5618 25.3382 13.2752 25.4566C14.8748 25.5698 18.5944 25.4514 20.8338 25.2198C22.4551 25.0551 23.1871 24.8286 22.9594 24.561C22.9322 24.5301 22.8292 24.1183 22.737 23.65C21.9942 19.9183 22.0484 20.1345 21.8695 19.9853C21.7122 19.8514 21.2513 19.6867 21.0399 19.6867C20.9206 19.6867 20.9043 19.6507 20.8664 19.2492C20.8501 19.0794 20.7362 18.1529 20.6115 17.1904C20.4922 16.2279 20.3784 15.2448 20.3621 15.0029C20.335 14.5139 20.2753 14.6323 20.8826 13.9014C21.1104 13.6184 21.1212 13.5978 21.2188 12.9544C21.3327 12.1926 21.5929 9.76836 21.5929 9.44925C21.5929 9.20733 21.5008 9.0066 21.311 8.84704C21.1429 8.69778 19.5216 7.89998 19.3915 7.89998C19.2397 7.90513 19.1638 7.97719 18.7083 8.54337C18.4806 8.82645 18.2203 9.14042 18.1281 9.23822L17.9654 9.41836L17.96 8.50734C17.96 7.84337 17.9438 7.58602 17.895 7.56028C17.7702 7.48822 14.9615 7.47793 14.8422 7.54484ZM16.0134 8.06984C15.5417 8.29116 15.5471 8.27057 15.5363 9.94336C15.5254 11.0757 15.5092 11.4309 15.4549 11.4772C15.417 11.5132 15.032 11.647 14.5982 11.7809C13.709 12.0485 12.8902 12.347 13.1884 12.3007C13.2915 12.2801 13.6331 12.2235 13.9476 12.172C15.5363 11.9044 17.1358 11.9404 18.4426 12.275C18.5727 12.3059 18.6649 12.3419 18.6595 12.3522C18.6487 12.3573 18.4426 12.347 18.204 12.3264C17.1575 12.2184 15.8237 12.2853 14.8151 12.4912C13.6276 12.7331 12.9661 13.0007 12.4727 13.4485C12.2992 13.6029 12.1474 13.7213 12.1365 13.711C12.0172 13.572 11.8762 13.0059 11.8058 12.3779C11.578 10.3242 11.5075 9.56248 11.5346 9.43895C11.578 9.24851 11.719 9.13528 12.3751 8.78013L12.9444 8.47131L12.977 8.63601C12.9987 8.72866 13.042 9.09925 13.08 9.46983C13.1179 9.83527 13.1667 10.175 13.183 10.2213C13.2101 10.2934 13.3294 10.2728 14.1265 10.0926C14.8422 9.92792 15.0537 9.86101 15.1025 9.77866C15.1405 9.71689 15.173 9.35145 15.1838 8.87792C15.2001 8.2191 15.2164 8.06984 15.2923 8.01322C15.3465 7.97719 15.5471 7.95146 15.8128 7.95146L16.252 7.9566L16.0134 8.06984ZM19.3156 8.50734C19.3156 8.58454 19.2939 8.8316 19.2614 9.05807C19.2343 9.28454 19.2017 9.57277 19.1909 9.70145C19.1638 9.95366 19.1204 9.9691 18.8113 9.86101C18.6161 9.78895 18.6215 9.60881 18.8222 9.1816C18.9035 9.00145 19.0282 8.7441 19.0879 8.60513C19.2126 8.33234 19.3156 8.29116 19.3156 8.50734ZM18.0142 13.011C18.6432 13.1551 19.2722 13.361 19.1692 13.3919C19.1095 13.4125 18.5619 13.3198 18.1552 13.222L18.0142 13.1911V13.7367C18.0142 14.0353 18.0359 14.2823 18.0576 14.2823C18.1552 14.2823 19.6518 14.5809 19.6789 14.6066C19.6952 14.622 19.6897 14.6581 19.6735 14.6838C19.6572 14.7147 19.4457 14.6941 19.1529 14.6375C18.4047 14.4934 17.1901 14.3853 16.2791 14.3853C15.5309 14.3853 13.9421 14.5036 13.8283 14.5706C13.7307 14.6272 13.8228 13.2992 13.9259 13.2014C14.0018 13.1294 14.4898 13.011 15.0754 12.9184C15.8182 12.8 17.2931 12.8514 18.0142 13.011ZM13.5083 13.8654C13.4867 14.1434 13.4433 14.4161 13.4162 14.4676C13.3836 14.5242 13.2589 14.6169 13.1396 14.6838L12.9173 14.8022V14.375C12.9173 14.1382 12.9444 13.8603 12.9715 13.7573C13.0366 13.5463 13.2481 13.3559 13.427 13.3559C13.5409 13.3559 13.5409 13.3713 13.5083 13.8654ZM17.369 14.7661C17.8028 14.8331 18.1823 14.9 18.2149 14.9154C18.2474 14.936 18.2854 15.1316 18.3016 15.3581C18.3342 15.8213 18.4209 16.0014 18.692 16.1713C19.0119 16.372 19.0445 16.3154 19.0445 15.5948C19.0445 15.2448 19.0662 14.9463 19.0933 14.9257C19.2017 14.8639 19.2722 15.1316 19.2722 15.6103C19.2722 16.2485 19.3047 16.3257 19.6138 16.3978C19.8578 16.4544 19.95 16.5161 19.8687 16.5625C19.847 16.5779 19.6084 16.547 19.3427 16.4956C19.0716 16.4389 18.7951 16.3978 18.7246 16.3926H18.5944L18.6324 17.1235C18.6758 18.0088 18.692 18.0294 19.3535 18.1632C19.7873 18.2507 20.1669 18.3845 20.1127 18.4308C20.0964 18.4463 19.8036 18.4103 19.4566 18.3485C19.1095 18.2919 18.8005 18.2558 18.7734 18.2713C18.7408 18.2867 18.7191 18.3691 18.7191 18.4566C18.7191 18.5904 18.7029 18.6058 18.5294 18.6058C18.2094 18.6058 18.1932 18.5338 18.1607 17.1389C18.1281 15.7647 18.0793 15.4816 17.7974 15.2088C17.5642 14.9823 17.4178 14.9463 16.5448 14.9154C15.7857 14.8845 15.7423 14.8897 15.5254 15.0081C15.3573 15.0956 15.2652 15.1985 15.1513 15.4095C15.0049 15.6978 15.0049 15.7029 14.9886 16.9588C14.9832 17.6536 14.9615 18.2713 14.9452 18.3382C14.9236 18.436 14.6579 18.6058 14.5223 18.6058C14.5115 18.6058 14.4844 18.5132 14.4627 18.4C14.441 18.2867 14.403 18.1838 14.3813 18.1683C14.3542 18.1529 13.915 18.2095 13.3999 18.297C12.8902 18.3845 12.4564 18.4411 12.4402 18.4308C12.4239 18.4154 12.4456 18.1117 12.4835 17.7566C12.5323 17.3139 12.5811 17.072 12.6408 17.0051C12.7275 16.9022 13.0529 16.8147 13.812 16.7014C14.3054 16.6294 14.5982 16.511 14.5982 16.3875C14.5982 16.336 14.582 16.2897 14.5603 16.2897C14.5332 16.2897 14.094 16.3566 13.5843 16.4338L12.6462 16.5779V16.4235C12.6516 16.336 12.6842 16.0117 12.7221 15.7029C12.7709 15.286 12.8143 15.1264 12.8848 15.0801C12.9715 15.0184 13.8608 14.8382 14.4518 14.7661L14.7067 14.7301V15.2654C14.7121 15.7492 14.7175 15.7904 14.788 15.7029C14.8314 15.6463 14.8693 15.497 14.8693 15.3684C14.8693 15.1831 14.9019 15.0956 15.032 14.9514C15.1838 14.7816 15.2218 14.7661 15.6935 14.7147C16.4147 14.6323 16.4906 14.6323 17.369 14.7661Z" fill="black"/>
</svg>
