<svg width="32" height="32" viewBox="0 0 32 32" fill="none" xmlns="http://www.w3.org/2000/svg">
<path d="M18.8537 12.5C19.8166 12.5 20.5794 12.793 21.1419 13.3791C21.714 13.9554 22 14.8248 22 15.9872V20.5H19.769V16.3388C19.769 15.7137 19.6403 15.2497 19.3828 14.9469C19.1349 14.6343 18.7774 14.478 18.3102 14.478C17.7858 14.478 17.3711 14.6538 17.066 15.0055C16.7609 15.3474 16.6084 15.8602 16.6084 16.544V20.5H14.3773V16.3388C14.3773 15.0983 13.8911 14.478 12.9186 14.478C12.4037 14.478 11.9938 14.6538 11.6887 15.0055C11.3836 15.3474 11.231 15.8602 11.231 16.544V20.5H9V12.6172H11.1309V13.5256C11.4169 13.1935 11.7649 12.9396 12.1749 12.7637C12.5944 12.5879 13.0521 12.5 13.5479 12.5C14.0913 12.5 14.5823 12.6123 15.0209 12.837C15.4595 13.0519 15.8122 13.3694 16.0792 13.7894C16.3938 13.3791 16.7895 13.0617 17.2662 12.837C17.7525 12.6123 18.2816 12.5 18.8537 12.5Z" fill="black"/>
<path d="M18.8537 12.5C19.8166 12.5 20.5794 12.793 21.1419 13.3791C21.714 13.9554 22 14.8248 22 15.9872V20.5H19.769V16.3388C19.769 15.7137 19.6403 15.2497 19.3828 14.9469C19.1349 14.6343 18.7774 14.478 18.3102 14.478C17.7858 14.478 17.3711 14.6538 17.066 15.0055C16.7609 15.3474 16.6084 15.8602 16.6084 16.544V20.5H14.3773V16.3388C14.3773 15.0983 13.8911 14.478 12.9186 14.478C12.4037 14.478 11.9938 14.6538 11.6887 15.0055C11.3836 15.3474 11.231 15.8602 11.231 16.544V20.5H9V12.6172H11.1309V13.5256C11.4169 13.1935 11.7649 12.9396 12.1749 12.7637C12.5944 12.5879 13.0521 12.5 13.5479 12.5C14.0913 12.5 14.5823 12.6123 15.0209 12.837C15.4595 13.0519 15.8122 13.3694 16.0792 13.7894C16.3938 13.3791 16.7895 13.0617 17.2662 12.837C17.7525 12.6123 18.2816 12.5 18.8537 12.5Z" fill="black" fill-opacity="0.1"/>
<circle cx="25.5" cy="19" r="1.5" fill="black"/>
</svg>
