<svg width="32" height="32" viewBox="0 0 32 32" fill="none" xmlns="http://www.w3.org/2000/svg">
<path d="M8.50086 10.3854C7.94905 10.0666 7.24333 10.2556 6.92458 10.8074C6.60584 11.3592 6.79477 12.0649 7.34658 12.3837L14.8468 16.7161V25.2307C14.8468 25.8679 15.3634 26.3845 16.0006 26.3845C16.6379 26.3845 17.1545 25.8679 17.1545 25.2307V16.7161L24.6547 12.3837C25.2065 12.0649 25.3954 11.3592 25.0767 10.8074C24.758 10.2556 24.0522 10.0666 23.5004 10.3854L16.0006 14.7176L8.50086 10.3854Z" fill="black"/>
<path fill-rule="evenodd" clip-rule="evenodd" d="M13.7164 1.60073C15.1298 0.799757 16.8711 0.799757 18.2845 1.60073L27.5626 6.85878C28.9759 7.65975 29.8466 9.14001 29.8466 10.742V21.258C29.8466 22.86 28.9759 24.3403 27.5626 25.1412L18.2845 30.3993C16.8711 31.2002 15.1298 31.2002 13.7164 30.3993L4.43832 25.1412C3.02496 24.3403 2.1543 22.86 2.1543 21.258V10.742C2.1543 9.14001 3.02496 7.65975 4.43832 6.85878L13.7164 1.60073ZM17.1425 3.54232L26.4206 8.80036C27.1273 9.20085 27.5626 9.94098 27.5626 10.742V21.258C27.5626 22.059 27.1273 22.7992 26.4206 23.1996L17.1425 28.4577C16.4358 28.8582 15.5651 28.8582 14.8584 28.4577L5.58033 23.1996C4.87365 22.7992 4.43832 22.059 4.43832 21.258V10.742C4.43832 9.94098 4.87365 9.20085 5.58033 8.80036L14.8584 3.54232C15.5651 3.14183 16.4358 3.14183 17.1425 3.54232Z" fill="black"/>
</svg>
