<svg width="32" height="33" viewBox="0 0 32 33" fill="none" xmlns="http://www.w3.org/2000/svg">
<path fill-rule="evenodd" clip-rule="evenodd" d="M9.6763 29.6462C11.1933 29.7702 13.1502 29.7725 16 29.7725C18.8497 29.7725 20.8066 29.7702 22.3237 29.6462C23.8057 29.525 24.6017 29.303 25.1779 29.0094C26.4951 28.3383 27.5659 27.2675 28.237 25.9503C28.5306 25.3743 28.7525 24.5782 28.8737 23.0962C28.9976 21.5791 29 19.6223 29 16.7725C29 13.9226 28.9976 11.9658 28.8737 10.4487C28.7525 8.96673 28.5306 8.17069 28.237 7.59453C27.5659 6.2774 26.4951 5.20653 25.1779 4.53541C24.6017 4.24185 23.8057 4.01982 22.3237 3.89874C20.8066 3.77479 18.8497 3.77246 16 3.77246C13.1502 3.77246 11.1933 3.77479 9.6763 3.89874C8.19431 4.01982 7.39821 4.24185 6.82206 4.53541C5.50492 5.20653 4.43406 6.2774 3.76294 7.59453C3.46938 8.17069 3.24735 8.96673 3.12628 10.4487C3.00233 11.9658 2.99999 13.9226 2.99999 16.7725C2.99999 19.6223 3.00233 21.5791 3.12628 23.0962C3.24735 24.5782 3.46938 25.3743 3.76294 25.9503C4.43406 27.2675 5.50492 28.3383 6.82206 29.0094C7.39821 29.303 8.19431 29.525 9.6763 29.6462ZM1.08993 6.23255C0 8.37167 0 11.1719 0 16.7725C0 22.373 0 25.1733 1.08993 27.3123C2.04867 29.1939 3.57846 30.7238 5.46008 31.6826C7.59919 32.7725 10.3995 32.7725 16 32.7725C21.6005 32.7725 24.4008 32.7725 26.5399 31.6826C28.4215 30.7238 29.9513 29.1939 30.9101 27.3123C32 25.1733 32 22.373 32 16.7725C32 11.1719 32 8.37167 30.9101 6.23255C29.9513 4.35093 28.4215 2.82113 26.5399 1.86239C24.4008 0.772461 21.6005 0.772461 16 0.772461C10.3995 0.772461 7.59919 0.772461 5.46008 1.86239C3.57846 2.82113 2.04867 4.35093 1.08993 6.23255Z" fill="#38424B"/>
<path fill-rule="evenodd" clip-rule="evenodd" d="M11.5968 11.868C12.1603 11.5654 12.8264 11.4225 13.5809 11.4225C14.4994 11.4225 15.2684 11.5528 15.8651 11.8382C16.315 12.0509 16.6955 12.3389 17.0027 12.7013C17.3503 12.3298 17.7472 12.0369 18.1934 11.8265C18.7766 11.5516 19.4746 11.4225 20.2743 11.4225C20.9084 11.4225 21.481 11.5006 21.987 11.6638C22.4908 11.8238 22.9176 12.0454 23.2538 12.338C23.5803 12.6146 23.8467 12.949 24.0534 13.3376C24.2554 13.7173 24.3985 14.1082 24.4805 14.5101C24.5607 14.903 24.5998 15.3234 24.5998 15.7705V21.5205C24.5998 21.9548 24.4359 22.3314 24.1189 22.6292C23.811 22.9178 23.4319 23.061 23.0033 23.061C22.559 23.061 22.1679 22.9221 21.8615 22.6256L21.8573 22.6216C21.5613 22.3254 21.418 21.949 21.418 21.5205V16.231C21.418 15.54 21.2595 15.087 21.0042 14.8078C20.7544 14.5344 20.3578 14.3686 19.7464 14.3686C19.0043 14.3686 18.5309 14.5506 18.248 14.8438C17.9585 15.1518 17.7942 15.5918 17.7942 16.2085V21.5205C17.7942 21.9548 17.6303 22.3314 17.3133 22.6292C17.0054 22.9178 16.6262 23.061 16.1978 23.061C15.7534 23.061 15.3622 22.9221 15.0557 22.6256L15.0517 22.6216C14.7556 22.3254 14.6123 21.949 14.6123 21.5205V16.231C14.6123 15.5405 14.453 15.0878 14.1963 14.8085C13.9449 14.5346 13.5452 14.3686 12.9296 14.3686C12.2229 14.3686 11.7565 14.5506 11.463 14.8542C11.1673 15.1601 10.9886 15.6494 10.9886 16.3882V21.5205C10.9886 21.9564 10.8325 22.335 10.5186 22.6294C10.2092 22.9194 9.82583 23.061 9.39199 23.061C8.95815 23.061 8.57477 22.9194 8.2654 22.6294C7.95147 22.335 7.79541 21.9564 7.79541 21.5205V13.1426C7.79541 12.707 7.95087 12.3256 8.2573 12.0192L8.2611 12.0153C8.57353 11.7124 8.9567 11.5573 9.39199 11.5573C9.82659 11.5573 10.2074 11.7121 10.5135 12.0172C10.6368 12.137 10.7365 12.2689 10.8122 12.4112C11.0372 12.2062 11.2998 12.0256 11.5968 11.868Z" fill="#38424B"/>
</svg>
