<svg width="32" height="33" viewBox="0 0 32 33" fill="none" xmlns="http://www.w3.org/2000/svg">
<path fill-rule="evenodd" clip-rule="evenodd" d="M28.0302 29.7723H27.0238L26.9998 29.7724H5.87499C4.97753 29.7724 4.25 29.0449 4.25 28.1474C4.25 27.25 4.97753 26.5225 5.87499 26.5225H16.726L7.45144 16.8148C5.32594 14.5872 5.35293 11.0393 7.51334 8.84539L11.1707 5.13138C12.0262 4.26089 13.1898 3.77246 14.401 3.77246C15.6121 3.77246 16.7757 4.26089 17.6313 5.13138L19.1393 6.66274H22.6093C23.5792 6.66918 24.4109 7.37039 24.5919 8.3376L26.4349 18.4368L30.3271 20.8709C31.2843 21.4754 31.87 22.5361 31.8748 23.6806V25.8681C31.8732 28.0233 30.1525 29.7707 28.0302 29.7723ZM9.80575 11.2022L13.4631 7.4882C13.7091 7.23673 14.0456 7.09488 14.3949 7.09488C14.7457 7.09488 15.0806 7.23674 15.3283 7.4882L17.3109 9.50157C17.6204 9.80462 18.0347 9.97065 18.4649 9.96421H21.5825L22.0333 12.4402H19.2777C18.3792 12.4402 17.6522 13.1785 17.6522 14.0909C17.6522 15.0033 18.3792 15.7416 19.2777 15.7416H22.6381L23.089 18.2176H21.7159C20.8174 18.2176 20.0904 18.9559 20.0904 19.8682C20.0904 20.7806 20.8174 21.5189 21.7159 21.5189H25.1653L28.6241 23.6774V25.8681C28.6241 26.2017 28.3591 26.4709 28.0305 26.4709H22.0447C21.4954 26.4709 20.9684 26.2452 20.5859 25.8439L9.78055 14.5277C8.89638 13.5976 8.90751 12.1194 9.80595 11.2022L9.80575 11.2022ZM2.62499 21.6475C1.72753 21.6475 1 22.375 1 23.2724C1 24.1699 1.72753 24.8974 2.62499 24.8974H9.12494C10.0224 24.8974 10.7499 24.1699 10.7499 23.2724C10.7499 22.375 10.0224 21.6475 9.12494 21.6475H2.62499Z" fill="black"/>
</svg>
