<svg width="32" height="32" viewBox="0 0 32 32" fill="none" xmlns="http://www.w3.org/2000/svg">
<path d="M8.43033 9.00972C9.51213 8.9417 10.7296 9.23156 11.7422 9.85442C12.7548 10.4773 13.5626 11.4331 13.9898 12.4293C14.4385 13.4161 14.601 14.657 14.3793 15.8249C14.1578 16.993 13.5521 18.0881 12.7732 18.842C12.4465 19.1814 11.8906 19.3511 11.4301 19.2518C10.9653 19.1755 10.5101 18.814 10.3306 18.3785L7.12778 11.1274C6.92681 10.7013 6.96616 10.1214 7.22285 9.72642C7.45963 9.31917 7.95942 9.02251 8.43033 9.00972Z" fill="#5710F5"/>
<path d="M24.9708 9.79633C25.0088 9.7136 25.0096 9.60731 24.9727 9.52407C24.9383 9.43975 24.8612 9.36655 24.7753 9.33655C23.5952 8.87383 22.0009 8.86898 20.6526 9.4424C19.3042 10.0158 18.2018 11.1675 17.7165 12.3385L13.1291 22.7275C13.0911 22.8102 13.0904 22.9165 13.1273 22.9997C13.1617 23.084 13.2387 23.1572 13.3247 23.1872C14.5048 23.65 16.099 23.6548 17.4474 23.0814C18.7957 22.508 19.8982 21.3563 20.3834 20.1853L24.9708 9.79633Z" fill="#5710F5"/>
</svg>
