<svg width="24" height="24" viewBox="0 0 24 24" fill="none" xmlns="http://www.w3.org/2000/svg">
<path d="M7.12297 11.0744C7.05169 10.981 6.95751 10.9076 6.84955 10.8613C6.74159 10.815 6.6235 10.7974 6.50673 10.8101C6.38997 10.8229 6.27848 10.8656 6.18307 10.9342C6.08766 11.0027 6.01157 11.0948 5.96217 11.2014L0.0747332 22.9802C0.0209558 23.0874 -0.00454074 23.2066 0.000663014 23.3265C0.00586677 23.4463 0.0415982 23.5628 0.104467 23.665C0.167335 23.7671 0.255255 23.8515 0.359882 23.9101C0.46451 23.9687 0.582374 23.9996 0.702291 23.9999H8.90044C9.03315 24.0024 9.16369 23.9659 9.27588 23.895C9.38808 23.824 9.477 23.7217 9.53163 23.6007C11.2982 19.972 10.2281 14.3946 7.12297 11.0744Z" fill="url(#paint0_linear_1145_7145)"/>
<path d="M11.4431 0.37686C9.97548 2.63546 9.12017 5.23702 8.96118 7.92616C8.80218 10.6153 9.34498 13.2996 10.5363 15.7155L14.5084 23.6007C14.5663 23.7179 14.6557 23.8166 14.7665 23.8858C14.8774 23.955 15.0053 23.992 15.1359 23.9926H23.3341C23.449 23.9831 23.56 23.9464 23.6579 23.8854C23.7558 23.8245 23.8377 23.741 23.8969 23.6421C23.9562 23.5431 23.991 23.4314 23.9984 23.3163C24.0059 23.2012 23.9858 23.086 23.9399 22.9802L12.6402 0.37686C12.5861 0.263998 12.5012 0.168736 12.3953 0.102057C12.2894 0.035379 12.1668 0 12.0417 0C11.9166 0 11.794 0.035379 11.6881 0.102057C11.5822 0.168736 11.4973 0.263998 11.4431 0.37686Z" fill="#2684FF"/>
<defs>
<linearGradient id="paint0_linear_1145_7145" x1="10.3514" y1="12.8923" x2="4.13439" y2="23.6606" gradientUnits="userSpaceOnUse">
<stop stop-color="#0052CC"/>
<stop offset="0.92" stop-color="#2684FF"/>
</linearGradient>
</defs>
</svg>
