<svg width="24" height="24" viewBox="0 0 24 24" fill="none" xmlns="http://www.w3.org/2000/svg">
<path d="M9.05588 12.9947C9.14119 11.4736 9.88483 10.1296 11.0116 9.17992C12.1142 8.24634 13.595 7.67493 15.2207 7.67493C16.8384 7.67493 18.3192 8.24553 19.4218 9.17992C20.5486 10.1296 21.289 11.4736 21.3775 12.9947C21.4628 14.556 20.8343 16.0127 19.7357 17.0912C18.609 18.1857 17.0154 18.8779 15.2207 18.8779C13.426 18.8779 11.8244 18.1905 10.7057 17.0912C9.60316 16.0127 8.9754 14.5641 9.06393 13.0028L9.05588 12.9947Z" fill="white"/>
<path d="M12.4278 12.8084C12.4717 12.0267 12.8538 11.3361 13.4328 10.848C13.9995 10.3683 14.7605 10.0746 15.5959 10.0746C16.4272 10.0746 17.1882 10.3679 17.7548 10.848C18.3338 11.3361 18.7143 12.0267 18.7598 12.8084C18.8036 13.6108 18.4806 14.3594 17.9161 14.9136C17.3371 15.476 16.5182 15.8317 15.5959 15.8317C14.6736 15.8317 13.8506 15.4785 13.2757 14.9136C12.7091 14.3594 12.3865 13.6149 12.432 12.8126L12.4278 12.8084Z" fill="#265787"/>
<path d="M7.46484 14.4627C7.47021 14.7688 7.56782 15.3643 7.71423 15.8275C8.02193 16.8119 8.54553 17.7218 9.2693 18.52C10.0137 19.343 10.9319 20.0047 11.9907 20.4762C13.1032 20.9684 14.3109 21.2207 15.564 21.2207C16.8172 21.219 18.0248 20.9626 19.1374 20.4638C20.1961 19.9882 21.1143 19.3265 21.8587 18.4993C22.5867 17.6928 23.1078 16.7829 23.4138 15.7986C23.5689 15.3023 23.6669 14.7977 23.7062 14.2932C23.7447 13.7969 23.7286 13.2964 23.6578 12.796C23.5197 11.8241 23.1822 10.9101 22.6652 10.0829C22.1937 9.31777 21.5816 8.6519 20.8537 8.08942L20.8554 8.08819L13.535 2.46346C13.5284 2.4585 13.523 2.45312 13.516 2.44857C13.0362 2.07966 12.2256 2.0809 11.7003 2.45064C11.1668 2.82452 11.1048 3.44324 11.5804 3.832L11.5783 3.83407L14.6347 6.31971L5.3291 6.32963H5.31669C4.54743 6.33046 3.80712 6.83421 3.66236 7.47526C3.51182 8.12458 4.03458 8.66637 4.83693 8.66637L4.8357 8.66927L9.55053 8.66017L1.11346 15.1121C1.1027 15.1199 1.09112 15.1282 1.0812 15.136C0.287118 15.744 0.0306962 16.7573 0.531131 17.3942C1.03984 18.0435 2.11929 18.0477 2.92164 17.3979L7.5124 13.6343C7.5124 13.6343 7.4454 14.143 7.45078 14.4449L7.46484 14.4627ZM19.2933 16.1625C18.3462 17.1262 17.0186 17.6763 15.5876 17.6763C14.1525 17.6787 12.8249 17.1386 11.8778 16.175C11.4145 15.7035 11.0754 15.1658 10.8645 14.5909C10.6589 14.0243 10.5791 13.4246 10.6321 12.8208C10.6821 12.2294 10.8583 11.6628 11.1408 11.1541C11.417 10.6536 11.7984 10.1987 12.2657 9.81407C13.188 9.06548 14.3584 8.65603 15.5826 8.65603C16.811 8.65437 17.9814 9.05679 18.9037 9.80579C19.371 10.1879 19.7515 10.6412 20.0286 11.1417C20.3111 11.6504 20.4877 12.2128 20.5373 12.8084C20.5895 13.4122 20.5096 14.0119 20.3041 14.5785C20.094 15.1575 19.754 15.6952 19.2908 16.1667L19.2933 16.1625Z" fill="#EA7600"/>
</svg>
