<svg width="25" height="24" viewBox="0 0 25 24" fill="none" xmlns="http://www.w3.org/2000/svg">
<g clip-path="url(#clip0_1145_7172)">
<path d="M20.2919 15.3173C20.5439 15.5693 20.3653 16 20.0093 16H13.3746C13.1533 16 12.9746 16.1787 12.9746 16.4V23.0347C12.9746 23.3907 12.5439 23.5693 12.2919 23.3173L5.13061 16.156C5.03061 16.056 4.97461 15.92 4.97461 15.7787V8.4C4.97461 8.17867 5.15328 8 5.37461 8H12.9746L20.2919 15.3173Z" fill="black"/>
<path d="M12.9743 8L5.65699 0.682667C5.40499 0.430667 5.58366 0 5.93966 0H20.5743C20.7957 0 20.9743 0.178667 20.9743 0.4V7.6C20.9743 7.82133 20.7957 8 20.5743 8H12.9743Z" fill="black"/>
</g>
<defs>
<clipPath id="clip0_1145_7172">
<rect width="16" height="24" fill="white" transform="translate(4.97461)"/>
</clipPath>
</defs>
</svg>
