<svg width="25" height="24" viewBox="0 0 25 24" fill="none" xmlns="http://www.w3.org/2000/svg">
<g clip-path="url(#clip0_1145_7170)">
<path fill-rule="evenodd" clip-rule="evenodd" d="M12.9746 0C6.34461 0 0.974609 5.37 0.974609 12C0.974609 17.31 4.40961 21.795 9.17961 23.385C9.77961 23.49 10.0046 23.13 10.0046 22.815C10.0046 22.53 9.98961 21.585 9.98961 20.58C6.97461 21.135 6.19461 19.845 5.95461 19.17C5.81961 18.825 5.23461 17.76 4.72461 17.475C4.30461 17.25 3.70461 16.695 4.70961 16.68C5.65461 16.665 6.32961 17.55 6.55461 17.91C7.63461 19.725 9.35961 19.215 10.0496 18.9C10.1546 18.12 10.4696 17.595 10.8146 17.295C8.14461 16.995 5.35461 15.96 5.35461 11.37C5.35461 10.065 5.81961 8.985 6.58461 8.145C6.46461 7.845 6.04461 6.615 6.70461 4.965C6.70461 4.965 7.70961 4.65 10.0046 6.195C10.9646 5.925 11.9846 5.79 13.0046 5.79C14.0246 5.79 15.0446 5.925 16.0046 6.195C18.2996 4.635 19.3046 4.965 19.3046 4.965C19.9646 6.615 19.5446 7.845 19.4246 8.145C20.1896 8.985 20.6546 10.05 20.6546 11.37C20.6546 15.975 17.8496 16.995 15.1796 17.295C15.6146 17.67 15.9896 18.39 15.9896 19.515C15.9896 21.12 15.9746 22.41 15.9746 22.815C15.9746 23.13 16.1996 23.505 16.7996 23.385C19.1818 22.5808 21.2519 21.0498 22.7184 19.0074C24.1849 16.9651 24.974 14.5143 24.9746 12C24.9746 5.37 19.6046 0 12.9746 0Z" fill="black"/>
</g>
<defs>
<clipPath id="clip0_1145_7170">
<rect width="24" height="24" fill="white" transform="translate(0.974609)"/>
</clipPath>
</defs>
</svg>
