<svg width="24" height="24" viewBox="0 0 24 24" fill="none" xmlns="http://www.w3.org/2000/svg">
<path d="M5.19917 6.10352e-05H18.8008C21.6703 6.10352e-05 24 2.32975 24 5.19924V18.8009C24 21.6704 21.6703 24.0001 18.8008 24.0001H5.19917C2.32968 24.0001 0 21.6704 0 18.8009V5.19924C0 2.32975 2.32968 6.10352e-05 5.19917 6.10352e-05Z" fill="#FFD02F"/>
<path d="M16.677 2.99738H14.0419L16.2366 6.85414L11.4068 2.99738H8.77166L11.1866 7.71357L6.13656 2.99738H3.50146L6.13656 8.99916L3.50146 21.0027H6.13656L11.1866 8.13973L8.77166 21.0027H11.4068L16.2366 7.28741L14.0419 21.0027H16.677L21.5068 5.99471L16.677 2.99738Z" fill="#050038"/>
</svg>
