<svg width="25" height="24" viewBox="0 0 25 24" fill="none" xmlns="http://www.w3.org/2000/svg">
<g clip-path="url(#clip0_1145_7167)">
<path d="M12.9746 24C19.602 24 24.9746 18.6274 24.9746 12C24.9746 5.37258 19.602 0 12.9746 0C6.34719 0 0.974609 5.37258 0.974609 12C0.974609 18.6274 6.34719 24 12.9746 24Z" fill="#13AA52"/>
<path d="M16.1826 10.5338C15.4247 7.18852 13.6333 6.08859 13.4405 5.66836C13.2295 5.37188 13.0158 4.84453 13.0158 4.84453C13.0123 4.83562 13.0066 4.81992 13.0001 4.80469C12.9783 5.10117 12.967 5.21555 12.6867 5.51461C12.2526 5.85398 10.0256 7.72266 9.84444 11.5233C9.67545 15.068 12.405 17.1802 12.7741 17.4495L12.8161 17.4792V17.4766C12.8184 17.4945 12.9333 18.3204 13.0139 19.1955H13.3031C13.371 18.5769 13.4727 17.9625 13.6078 17.355L13.6312 17.3398C13.7964 17.2214 13.9538 17.0926 14.1026 16.9542L14.1194 16.939C14.9041 16.2141 16.3148 14.5373 16.301 11.8641C16.2981 11.4181 16.2585 10.9732 16.1826 10.5338ZM12.9832 15.4481C12.9832 15.4481 12.9832 10.4766 13.1473 10.4775C13.2752 10.4775 13.4409 16.8902 13.4409 16.8902C13.2131 16.8628 12.9832 15.8348 12.9832 15.4481Z" fill="white"/>
</g>
<defs>
<clipPath id="clip0_1145_7167">
<rect width="24" height="24" fill="white" transform="translate(0.974609)"/>
</clipPath>
</defs>
</svg>
