<svg width="25" height="24" viewBox="0 0 25 24" fill="none" xmlns="http://www.w3.org/2000/svg">
<g clip-path="url(#clip0_1145_7164)">
<path d="M12.1887 0.00645849C12.1371 0.0111499 11.9728 0.0275698 11.825 0.0392982C8.41625 0.346584 5.22329 2.18561 3.201 5.01217C2.0749 6.58379 1.35467 8.36652 1.08253 10.2548C0.98634 10.9139 0.974609 11.1086 0.974609 12.0023C0.974609 12.8961 0.98634 13.0908 1.08253 13.7499C1.73473 18.256 4.94176 22.0419 9.29132 23.4447C10.0702 23.6956 10.8913 23.8669 11.825 23.9701C12.1887 24.01 13.7605 24.01 14.1242 23.9701C15.7359 23.7918 17.1013 23.3931 18.4479 22.7058C18.6544 22.6002 18.6943 22.5721 18.6661 22.5486C18.6473 22.5345 17.7676 21.3546 16.7119 19.9285L14.7928 17.3365L12.3881 13.778C11.0649 11.8217 9.97637 10.222 9.96698 10.222C9.9576 10.2196 9.94822 11.8006 9.94352 13.7311C9.93649 17.1113 9.93414 17.2473 9.89191 17.3271C9.83091 17.442 9.78399 17.4889 9.68546 17.5405C9.61039 17.5781 9.5447 17.5851 9.19045 17.5851H8.78458L8.67666 17.5171C8.60628 17.4725 8.55467 17.4139 8.51948 17.3458L8.47021 17.2403L8.4749 12.5372L8.48194 7.8317L8.55467 7.74022C8.5922 7.69096 8.67197 7.62763 8.72827 7.59713C8.82446 7.55022 8.862 7.54553 9.26786 7.54553C9.74646 7.54553 9.82622 7.56429 9.95056 7.70034C9.98575 7.73787 11.2878 9.69888 12.8456 12.061C14.4033 14.4231 16.5336 17.6484 17.5799 19.2318L19.4802 22.11L19.5764 22.0466C20.428 21.493 21.3289 20.7049 22.0421 19.8839C23.5599 18.141 24.5382 16.0158 24.8667 13.7499C24.9629 13.0908 24.9746 12.8961 24.9746 12.0023C24.9746 11.1086 24.9629 10.9139 24.8667 10.2548C24.2145 5.74872 21.0075 1.96277 16.6579 0.560043C15.8907 0.311399 15.0743 0.140163 14.1594 0.0369525C13.9341 0.0134956 12.3834 -0.0123071 12.1887 0.00645849ZM17.1013 7.26404C17.2139 7.32034 17.3054 7.42824 17.3382 7.54084C17.357 7.60182 17.3617 8.90603 17.357 11.8452L17.35 16.0627L16.6063 14.9227L15.8602 13.7827V10.7169C15.8602 8.73479 15.8696 7.62059 15.8837 7.56664C15.9212 7.43528 16.0033 7.33207 16.116 7.27108C16.2121 7.22182 16.2473 7.21713 16.6157 7.21713C16.9629 7.21713 17.0239 7.22182 17.1013 7.26404Z" fill="black"/>
</g>
<defs>
<clipPath id="clip0_1145_7164">
<rect width="24" height="24" fill="white" transform="translate(0.974609)"/>
</clipPath>
</defs>
</svg>
