<svg width="24" height="24" viewBox="0 0 24 24" fill="none" xmlns="http://www.w3.org/2000/svg">
<g clip-path="url(#clip0_1145_7153)">
<path d="M1.44408 1.0351L14.724 0.0542211C16.3553 -0.0856989 16.7743 0.00862104 17.8001 0.754301L22.0392 3.74062C22.7383 4.25422 22.9711 4.39414 22.9711 4.95334V21.3317C22.9711 22.3581 22.5984 22.9653 21.2935 23.058L5.87208 23.9921C4.89288 24.0384 4.42656 23.8985 3.91368 23.2449L0.792 19.1856C0.23208 18.4385 0 17.8793 0 17.2255V2.6671C0 1.82782 0.37272 1.12798 1.44408 1.0351Z" fill="white"/>
<path fill-rule="evenodd" clip-rule="evenodd" d="M14.724 0.0544611L1.44408 1.03534C0.37272 1.12798 0 1.82806 0 2.6671V17.2255C0 17.879 0.23208 18.4382 0.792 19.1856L3.91368 23.2447C4.42656 23.8982 4.89288 24.0384 5.87208 23.9918L21.2938 23.0582C22.5977 22.9653 22.9714 22.3581 22.9714 21.3319V4.95358C22.9714 4.42318 22.7618 4.2703 22.145 3.81766L17.8001 0.754301C16.7746 0.00862104 16.3553 -0.0856989 14.724 0.0542211V0.0544611ZM6.2208 4.6855C4.96152 4.77022 4.67592 4.78942 3.96072 4.2079L2.14248 2.76166C1.95768 2.57446 2.05056 2.34094 2.51616 2.29438L15.2825 1.3615C16.3546 1.2679 16.9128 1.64158 17.3321 1.96798L19.5216 3.55438C19.6152 3.60166 19.848 3.88078 19.5679 3.88078L6.384 4.67446L6.2208 4.6855ZM4.75272 21.192V7.28806C4.75272 6.68086 4.9392 6.40078 5.49744 6.35374L20.64 5.46718C21.1536 5.42086 21.3857 5.74726 21.3857 6.3535V20.1648C21.3857 20.772 21.2921 21.2856 20.4538 21.3319L5.96328 22.1719C5.12496 22.2182 4.75296 21.9391 4.75296 21.192H4.75272ZM19.0567 8.0335C19.1496 8.4535 19.0567 8.8735 18.6367 8.9215L17.9383 9.05998V19.3255C17.3318 19.6519 16.7736 19.8384 16.307 19.8384C15.5614 19.8384 15.3751 19.6049 14.8166 18.9055L10.2494 11.7199V18.672L11.6942 18.9991C11.6942 18.9991 11.6942 19.8391 10.5286 19.8391L7.31496 20.0256C7.22136 19.8384 7.31496 19.3721 7.64064 19.2792L8.47992 19.0464V9.85438L7.3152 9.76006C7.2216 9.34006 7.4544 8.73358 8.1072 8.68654L11.5553 8.45446L16.3073 15.7329V9.29374L15.096 9.15454C15.0024 8.64022 15.3751 8.26654 15.8407 8.22094L19.0567 8.0335Z" fill="black"/>
</g>
<defs>
<clipPath id="clip0_1145_7153">
<rect width="24" height="24" fill="white"/>
</clipPath>
</defs>
</svg>
