<svg width="27" height="24" viewBox="0 0 27 24" fill="none" xmlns="http://www.w3.org/2000/svg">
<g clip-path="url(#clip0_1145_7158)">
<path d="M13.0005 13.8157C14.1819 13.8157 15.1396 12.858 15.1396 11.6766C15.1396 10.4952 14.1819 9.53748 13.0005 9.53748C11.819 9.53748 10.8613 10.4952 10.8613 11.6766C10.8613 12.858 11.819 13.8157 13.0005 13.8157Z" fill="black"/>
<path d="M12.9997 16.0592C19.339 16.0592 24.478 14.097 24.478 11.6766C24.478 9.25611 19.339 7.29395 12.9997 7.29395C6.66048 7.29395 1.52148 9.25611 1.52148 11.6766C1.52148 14.097 6.66048 16.0592 12.9997 16.0592Z" stroke="black"/>
<path d="M9.20389 13.8679C12.3735 19.3578 16.6423 22.8273 18.7385 21.617C20.8346 20.4068 19.9644 14.9752 16.7948 9.48527C13.6252 3.9953 9.35638 0.52588 7.26021 1.7361C5.16404 2.94633 6.03426 8.37791 9.20389 13.8679Z" stroke="black"/>
<path d="M9.20415 9.48529C6.03451 14.9753 5.1643 20.4068 7.26047 21.6171C9.35664 22.8273 13.6254 19.3579 16.795 13.8679C19.9647 8.37793 20.8349 2.94635 18.7387 1.73612C16.6426 0.525901 12.3738 3.99532 9.20415 9.48529Z" stroke="black"/>
</g>
<defs>
<clipPath id="clip0_1145_7158">
<rect width="26.9749" height="24" fill="white"/>
</clipPath>
</defs>
</svg>
