<svg width="24" height="24" viewBox="0 0 24 24" fill="none" xmlns="http://www.w3.org/2000/svg">
<path fill-rule="evenodd" clip-rule="evenodd" d="M21.1509 0H2.85297C1.27884 0 0.00216781 1.27578 2.29989e-05 2.85091V21.1337C-0.00302094 21.8928 0.296199 22.6219 0.831558 23.1598C1.36692 23.6977 2.09432 24 2.85297 24H21.1509C21.9089 23.999 22.6353 23.6962 23.1698 23.1584C23.7043 22.6207 24.003 21.8922 24 21.1337V2.85091C23.9978 1.27728 22.7235 0.00211938 21.1509 0ZM10.3505 17.2863C10.3495 17.54 10.2476 17.7829 10.0672 17.9612C9.8868 18.1396 9.64287 18.2387 9.38931 18.2366H5.39061C4.86761 18.2345 4.44476 17.8096 4.44476 17.2863V5.37865C4.44476 4.85531 4.86761 4.43046 5.39061 4.42834H9.38931C9.91293 4.43045 10.3369 4.85468 10.339 5.37865L10.3505 17.2863ZM19.5783 11.8192C19.5783 12.0732 19.4767 12.3167 19.2961 12.4953C19.1155 12.6738 18.871 12.7726 18.6171 12.7695H14.6184C14.0948 12.7674 13.6708 12.3431 13.6687 11.8192V5.37865C13.6708 4.85468 14.0948 4.43045 14.6184 4.42834H18.6171C19.1401 4.43046 19.5629 4.85531 19.5629 5.37865L19.5783 11.8192Z" fill="url(#paint0_linear_1145_7151)"/>
<defs>
<linearGradient id="paint0_linear_1145_7151" x1="3747.6" y1="1536" x2="3747.6" y2="0" gradientUnits="userSpaceOnUse">
<stop stop-color="#0052CC"/>
<stop offset="1" stop-color="#2684FF"/>
</linearGradient>
</defs>
</svg>
