<svg width="24" height="24" viewBox="0 0 24 24" fill="none" xmlns="http://www.w3.org/2000/svg">
<mask id="mask0_1145_7127" style="mask-type:luminance" maskUnits="userSpaceOnUse" x="0" y="0" width="24" height="24">
<path d="M24 0H0V24H24V0Z" fill="white"/>
</mask>
<g mask="url(#mask0_1145_7127)">
<mask id="mask1_1145_7127" style="mask-type:luminance" maskUnits="userSpaceOnUse" x="0" y="0" width="24" height="24">
<path d="M24 0H0V24H24V0Z" fill="white"/>
</mask>
<g mask="url(#mask1_1145_7127)">
<path d="M1.90711 2.67976C3.3495 2.58908 4.97278 2.97556 6.32295 3.80604C7.67312 4.63652 8.75016 5.91099 9.31976 7.23926C9.918 8.55489 10.1346 10.2095 9.83912 11.7667C9.54368 13.3241 8.73608 14.7843 7.69754 15.7895C7.26205 16.242 6.52085 16.4683 5.90684 16.3359C5.28702 16.2341 4.68018 15.7522 4.44074 15.1715L0.170375 5.50329C-0.0975889 4.93521 -0.0451201 4.16205 0.297138 3.63537C0.612836 3.09236 1.27923 2.69682 1.90711 2.67976Z" fill="#5710F5"/>
<path d="M23.9614 3.72859C24.0121 3.61828 24.0131 3.47656 23.9639 3.36556C23.918 3.25315 23.8153 3.15554 23.7007 3.11555C22.1272 2.49859 20.0016 2.49212 18.2038 3.25668C16.406 4.02124 14.9361 5.55686 14.289 7.11814L8.17251 20.9701C8.12179 21.0804 8.12083 21.2222 8.17003 21.3331C8.21587 21.4455 8.31859 21.5431 8.43323 21.5831C10.0067 22.2001 12.1323 22.2066 13.9302 21.442C15.7279 20.6775 17.1979 19.1419 17.8449 17.5806L23.9614 3.72859Z" fill="#5710F5"/>
</g>
</g>
</svg>
