<svg width="25" height="24" viewBox="0 0 25 24" fill="none" xmlns="http://www.w3.org/2000/svg">
<path d="M18.7764 8.87207C18.7764 8.87207 16.8305 14.9838 16.6719 15.4883C16.6142 14.9694 15.1872 4 15.1872 4C11.8719 4 10.0989 6.36396 9.162 8.85766C9.162 8.85766 6.79803 14.9838 6.59623 15.5027C6.58182 15.027 6.23587 8.92973 6.23587 8.92973C6.03407 5.87387 3.23767 4.01441 0.974609 4.01441L3.71335 20.6342C7.18722 20.6198 9.0611 18.2703 10.0413 15.7766C10.0413 15.7766 12.1314 10.3712 12.2179 10.1261C12.2323 10.3568 13.717 20.6342 13.717 20.6342C17.2052 20.6342 19.0791 18.4288 20.0881 16.0216L24.9746 4.01441C21.5296 4.01441 19.7133 6.36396 18.7764 8.87207Z" fill="#4353FF"/>
</svg>
